<svg width="18" height="19" viewBox="0 0 18 19" fill="none" xmlns="http://www.w3.org/2000/svg">
<g clip-path="url(#clip0_15_2463)" filter="url(#filter0_f_15_2463)">
<path d="M12.9633 11.0432C12.7541 10.5542 12.3515 10.1511 11.7554 9.83406C12.6719 9.63135 13.2095 9.02303 13.3685 8.00906C13.4289 7.6421 13.4105 7.30568 13.3131 6.9993C13.2157 6.69283 13.0468 6.42296 12.8058 6.18939C12.5651 5.95568 12.2896 5.75384 11.9803 5.58369C11.671 5.41351 11.3065 5.25365 10.8873 5.10427L11.4203 3.0512L10.1658 2.7255L9.64758 4.72153C9.43034 4.66513 9.09763 4.58454 8.64948 4.4798L9.17192 2.46747L7.91721 2.14173L7.3842 4.1948C7.20349 4.1537 6.93939 4.08809 6.5918 3.99785L4.86679 3.54124L4.5199 4.87738L5.42416 5.11215C5.83696 5.21932 6.0307 5.46678 6.00543 5.85438L5.39837 8.19264C5.45276 8.20676 5.49544 8.22083 5.52664 8.23472L5.39624 8.20086L4.54599 11.4759C4.43069 11.7415 4.23721 11.8392 3.96561 11.7687L3.06141 11.534L2.42173 12.9594L4.05117 13.3824C4.15438 13.4092 4.3033 13.4493 4.49827 13.5025C4.69305 13.556 4.83929 13.5955 4.93708 13.6209L4.39773 15.6983L5.65264 16.0241L6.18564 13.9711C6.41226 14.0358 6.74287 14.1245 7.17738 14.2373L6.6465 16.2821L7.90106 16.6079L8.44042 14.5304C8.89151 14.6243 9.29714 14.6864 9.65744 14.716C10.0179 14.7455 10.3722 14.7377 10.7203 14.6917C11.0684 14.6459 11.373 14.5553 11.6342 14.4202C11.8954 14.2853 12.1332 14.0889 12.3481 13.8316C12.5625 13.5742 12.739 13.2576 12.8771 12.8818C13.1439 12.1454 13.1725 11.5325 12.9633 11.0432ZM8.29321 5.9524C8.33125 5.96228 8.43887 5.98876 8.6161 6.03185C8.79343 6.0749 8.94072 6.11027 9.0582 6.13785C9.17569 6.16549 9.33144 6.21318 9.52553 6.28096C9.71954 6.34872 9.88088 6.41384 10.0096 6.47619C10.1383 6.53854 10.2761 6.62219 10.4227 6.72692C10.5696 6.83166 10.6801 6.94156 10.7545 7.05651C10.8291 7.17151 10.8823 7.30713 10.9141 7.46323C10.9461 7.61936 10.9388 7.78704 10.8923 7.96624C10.8528 8.11833 10.7924 8.25054 10.7112 8.36285C10.63 8.4751 10.5293 8.5606 10.4098 8.61942C10.2903 8.67827 10.1706 8.72553 10.0512 8.76114C9.93186 8.79678 9.78697 8.81284 9.61694 8.80923C9.44692 8.8057 9.29932 8.79926 9.17426 8.78995C9.04911 8.78066 8.8959 8.75688 8.71453 8.71844C8.53314 8.68 8.39587 8.65027 8.30289 8.629C8.20983 8.6077 8.08359 8.57492 7.924 8.53063C7.76438 8.48633 7.67118 8.46061 7.64396 8.45354L8.2933 5.9524L8.29322 5.95238L8.29321 5.9524ZM10.2788 12.3899C10.1946 12.5015 10.1 12.5929 9.99457 12.6642C9.88909 12.7352 9.76059 12.7889 9.60928 12.8249C9.45795 12.8611 9.31404 12.8845 9.17795 12.8955C9.04163 12.9067 8.88104 12.9054 8.6962 12.8923C8.51098 12.879 8.35033 12.8618 8.21358 12.8409C8.07704 12.82 7.91543 12.7895 7.72856 12.7498C7.54189 12.7099 7.3968 12.6766 7.29364 12.6498C7.19043 12.623 7.06043 12.5877 6.90361 12.5442C6.74666 12.5007 6.64663 12.4733 6.60314 12.462L7.31809 9.70815C7.36149 9.71942 7.49119 9.75026 7.70721 9.80044C7.92325 9.85067 8.09898 9.89359 8.23478 9.92884C8.37055 9.96409 8.55592 10.0208 8.79073 10.0993C9.02537 10.1774 9.22003 10.254 9.37465 10.3289C9.52905 10.4038 9.69378 10.5001 9.86909 10.6182C10.0442 10.7361 10.179 10.8595 10.2731 10.9883C10.3672 11.1172 10.4352 11.268 10.4772 11.4413C10.5193 11.6145 10.5149 11.7989 10.4642 11.9945C10.4246 12.1467 10.3629 12.2783 10.2788 12.3899Z" fill="#F6543E" fill-opacity="0.53"/>
</g>
<defs>
<filter id="filter0_f_15_2463" x="-1.3" y="-0.3" width="19.676" height="19.676" filterUnits="userSpaceOnUse" color-interpolation-filters="sRGB">
<feFlood flood-opacity="0" result="BackgroundImageFix"/>
<feBlend mode="normal" in="SourceGraphic" in2="BackgroundImageFix" result="shape"/>
<feGaussianBlur stdDeviation="0.65" result="effect1_foregroundBlur_15_2463"/>
</filter>
<clipPath id="clip0_15_2463">
<rect width="14.0059" height="14.0059" fill="white" transform="translate(3.51952 1) rotate(14.5538)"/>
</clipPath>
</defs>
</svg>
