<svg width="390" height="378" viewBox="0 0 390 378" fill="none" xmlns="http://www.w3.org/2000/svg">
<g filter="url(#filter0_f_38_7)">
<ellipse cx="157.5" cy="102" rx="478.5" ry="41" fill="url(#paint0_linear_38_7)"/>
</g>
<g clip-path="url(#clip0_38_7)" filter="url(#filter1_f_38_7)">
<path d="M249.444 82.0432C249.235 81.5542 248.832 81.1511 248.236 80.8341C249.152 80.6314 249.69 80.023 249.849 79.0091C249.909 78.6421 249.891 78.3057 249.794 77.9993C249.696 77.6928 249.527 77.423 249.286 77.1894C249.046 76.9557 248.77 76.7538 248.461 76.5837C248.151 76.4135 247.787 76.2537 247.368 76.1043L247.901 74.0512L246.646 73.7255L246.128 75.7215C245.911 75.6651 245.578 75.5845 245.13 75.4798L245.652 73.4675L244.398 73.1417L243.865 75.1948C243.684 75.1537 243.42 75.0881 243.072 74.9979L241.347 74.5412L241 75.8774L241.905 76.1121C242.317 76.2193 242.511 76.4668 242.486 76.8544L241.879 79.1926C241.933 79.2068 241.976 79.2208 242.007 79.2347L241.877 79.2009L241.026 82.4759C240.911 82.7415 240.718 82.8392 240.446 82.7687L239.542 82.534L238.902 83.9594L240.532 84.3824C240.635 84.4092 240.784 84.4493 240.979 84.5025C241.174 84.556 241.32 84.5955 241.418 84.6209L240.878 86.6983L242.133 87.0241L242.666 84.9711C242.893 85.0358 243.223 85.1245 243.658 85.2373L243.127 87.2821L244.382 87.6079L244.921 85.5304C245.372 85.6243 245.778 85.6864 246.138 85.716C246.498 85.7455 246.853 85.7377 247.201 85.6917C247.549 85.6459 247.854 85.5553 248.115 85.4202C248.376 85.2853 248.614 85.0889 248.829 84.8316C249.043 84.5742 249.22 84.2576 249.358 83.8818C249.624 83.1454 249.653 82.5325 249.444 82.0432ZM244.774 76.9524C244.812 76.9623 244.919 76.9888 245.097 77.0318C245.274 77.0749 245.421 77.1103 245.539 77.1378C245.656 77.1655 245.812 77.2132 246.006 77.281C246.2 77.3487 246.361 77.4138 246.49 77.4762C246.619 77.5385 246.757 77.6222 246.903 77.7269C247.05 77.8317 247.161 77.9416 247.235 78.0565C247.31 78.1715 247.363 78.3071 247.395 78.4632C247.427 78.6194 247.419 78.787 247.373 78.9662C247.333 79.1183 247.273 79.2505 247.192 79.3629C247.111 79.4751 247.01 79.5606 246.89 79.6194C246.771 79.6783 246.651 79.7255 246.532 79.7611C246.412 79.7968 246.267 79.8128 246.097 79.8092C245.927 79.8057 245.78 79.7993 245.655 79.7899C245.53 79.7807 245.376 79.7569 245.195 79.7184C245.014 79.68 244.876 79.6503 244.783 79.629C244.69 79.6077 244.564 79.5749 244.405 79.5306C244.245 79.4863 244.152 79.4606 244.124 79.4535L244.774 76.9524L244.774 76.9524L244.774 76.9524ZM246.759 83.3899C246.675 83.5015 246.58 83.5929 246.475 83.6642C246.37 83.7352 246.241 83.7889 246.09 83.8249C245.938 83.8611 245.795 83.8845 245.658 83.8955C245.522 83.9067 245.362 83.9054 245.177 83.8923C244.991 83.879 244.831 83.8618 244.694 83.8409C244.558 83.82 244.396 83.7895 244.209 83.7498C244.022 83.7099 243.877 83.6766 243.774 83.6498C243.671 83.623 243.541 83.5877 243.384 83.5442C243.227 83.5007 243.127 83.4733 243.084 83.462L243.799 80.7082C243.842 80.7194 243.972 80.7503 244.188 80.8004C244.404 80.8507 244.579 80.8936 244.715 80.9288C244.851 80.9641 245.036 81.0208 245.271 81.0993C245.506 81.1774 245.701 81.254 245.855 81.3289C246.01 81.4038 246.174 81.5001 246.35 81.6182C246.525 81.7361 246.659 81.8595 246.754 81.9883C246.848 82.1172 246.916 82.268 246.958 82.4413C247 82.6145 246.995 82.7989 246.945 82.9945C246.905 83.1467 246.843 83.2783 246.759 83.3899Z" fill="#F6543E" fill-opacity="0.19"/>
</g>
<g clip-path="url(#clip1_38_7)" filter="url(#filter2_f_38_7)">
<path d="M363.963 200.043C363.754 199.554 363.351 199.151 362.755 198.834C363.672 198.631 364.209 198.023 364.368 197.009C364.429 196.642 364.41 196.306 364.313 195.999C364.216 195.693 364.047 195.423 363.806 195.189C363.565 194.956 363.29 194.754 362.98 194.584C362.671 194.414 362.307 194.254 361.887 194.104L362.42 192.051L361.166 191.725L360.648 193.722C360.43 193.665 360.098 193.585 359.649 193.48L360.172 191.467L358.917 191.142L358.384 193.195C358.203 193.154 357.939 193.088 357.592 192.998L355.867 192.541L355.52 193.877L356.424 194.112C356.837 194.219 357.031 194.467 357.005 194.854L356.398 197.193C356.453 197.207 356.495 197.221 356.527 197.235L356.396 197.201L355.546 200.476C355.431 200.742 355.237 200.839 354.966 200.769L354.061 200.534L353.422 201.959L355.051 202.382C355.154 202.409 355.303 202.449 355.498 202.503C355.693 202.556 355.839 202.595 355.937 202.621L355.398 204.698L356.653 205.024L357.186 202.971C357.412 203.036 357.743 203.125 358.177 203.237L357.646 205.282L358.901 205.608L359.44 203.53C359.891 203.624 360.297 203.686 360.657 203.716C361.018 203.746 361.372 203.738 361.72 203.692C362.068 203.646 362.373 203.555 362.634 203.42C362.895 203.285 363.133 203.089 363.348 202.832C363.562 202.574 363.739 202.258 363.877 201.882C364.144 201.145 364.173 200.532 363.963 200.043ZM359.293 194.952C359.331 194.962 359.439 194.989 359.616 195.032C359.793 195.075 359.941 195.11 360.058 195.138C360.176 195.165 360.331 195.213 360.526 195.281C360.72 195.349 360.881 195.414 361.01 195.476C361.138 195.539 361.276 195.622 361.423 195.727C361.57 195.832 361.68 195.942 361.754 196.057C361.829 196.172 361.882 196.307 361.914 196.463C361.946 196.619 361.939 196.787 361.892 196.966C361.853 197.118 361.792 197.251 361.711 197.363C361.63 197.475 361.529 197.561 361.41 197.619C361.29 197.678 361.171 197.726 361.051 197.761C360.932 197.797 360.787 197.813 360.617 197.809C360.447 197.806 360.299 197.799 360.174 197.79C360.049 197.781 359.896 197.757 359.715 197.718C359.533 197.68 359.396 197.65 359.303 197.629C359.21 197.608 359.084 197.575 358.924 197.531C358.764 197.486 358.671 197.461 358.644 197.454L359.293 194.952L359.293 194.952L359.293 194.952ZM361.279 201.39C361.195 201.501 361.1 201.593 360.995 201.664C360.889 201.735 360.761 201.789 360.609 201.825C360.458 201.861 360.314 201.884 360.178 201.896C360.042 201.907 359.881 201.905 359.696 201.892C359.511 201.879 359.35 201.862 359.214 201.841C359.077 201.82 358.915 201.79 358.729 201.75C358.542 201.71 358.397 201.677 358.294 201.65C358.19 201.623 358.06 201.588 357.904 201.544C357.747 201.501 357.647 201.473 357.603 201.462L358.318 198.708C358.361 198.719 358.491 198.75 358.707 198.8C358.923 198.851 359.099 198.894 359.235 198.929C359.371 198.964 359.556 199.021 359.791 199.099C360.025 199.177 360.22 199.254 360.375 199.329C360.529 199.404 360.694 199.5 360.869 199.618C361.044 199.736 361.179 199.859 361.273 199.988C361.367 200.117 361.435 200.268 361.477 200.441C361.519 200.615 361.515 200.799 361.464 200.995C361.425 201.147 361.363 201.278 361.279 201.39Z" fill="#F6543E" fill-opacity="0.09"/>
</g>
<g clip-path="url(#clip2_38_7)">
<path d="M361.319 88.0543C360.445 87.4863 359.351 87.269 358.035 87.4026C359.306 86.0737 359.518 84.4976 358.671 82.6738C358.37 82.0106 357.973 81.4831 357.481 81.0905C356.988 80.6979 356.419 80.4426 355.772 80.3251C355.125 80.2071 354.457 80.1788 353.768 80.2389C353.079 80.2992 352.312 80.4362 351.466 80.65L350.096 76.7271L347.699 77.5644L349.031 81.3782C348.616 81.5232 347.987 81.7547 347.143 82.0727L345.8 78.2277L343.403 79.0651L344.773 82.9879C344.434 83.118 343.933 83.299 343.268 83.531L339.963 84.668L340.855 87.221L342.582 86.6175C343.371 86.342 343.956 86.5336 344.338 87.1921L345.898 91.6599C346.002 91.6236 346.087 91.5999 346.153 91.5885L345.904 91.6756L348.089 97.9332C348.191 98.4913 347.983 98.8612 347.464 99.0425L345.736 99.6459L346.248 102.663L349.362 101.576C349.559 101.507 349.845 101.41 350.221 101.284C350.596 101.159 350.877 101.064 351.064 100.998L352.45 104.968L354.848 104.13L353.478 100.208C353.917 100.066 354.552 99.8499 355.382 99.5599L356.747 103.467L359.144 102.63L357.758 98.6603C358.594 98.3215 359.322 97.9804 359.941 97.6358C360.56 97.2911 361.128 96.8921 361.645 96.4378C362.161 95.9839 362.558 95.5044 362.836 94.9998C363.114 94.4955 363.287 93.9167 363.357 93.2636C363.425 92.6108 363.367 91.9032 363.182 91.1409C362.814 89.6514 362.193 88.6225 361.319 88.0543ZM348.168 84.858C348.241 84.8326 348.445 84.7584 348.78 84.6354C349.116 84.5122 349.394 84.4092 349.616 84.3261C349.837 84.243 350.143 84.1508 350.532 84.0496C350.922 83.9484 351.256 83.8786 351.533 83.8398C351.81 83.801 352.126 83.7869 352.479 83.7976C352.832 83.808 353.132 83.8664 353.378 83.9725C353.625 84.0784 353.859 84.2411 354.081 84.4606C354.303 84.6798 354.474 84.9607 354.594 85.3031C354.695 85.5937 354.741 85.8747 354.731 86.1461C354.722 86.4172 354.651 86.6661 354.521 86.8921C354.39 87.1182 354.247 87.3257 354.091 87.5138C353.936 87.7018 353.718 87.8859 353.437 88.0654C353.156 88.2449 352.909 88.3953 352.695 88.5165C352.481 88.6378 352.206 88.7661 351.869 88.9012C351.532 89.0363 351.276 89.1375 351.101 89.2043C350.927 89.271 350.686 89.3553 350.378 89.4571C350.069 89.559 349.89 89.6187 349.838 89.6369L348.168 84.8579L348.168 84.858L348.168 84.858ZM358.417 93.1724C358.402 93.4457 358.347 93.6977 358.253 93.9286C358.159 94.1592 358.008 94.3866 357.801 94.6101C357.594 94.834 357.386 95.0289 357.176 95.1952C356.967 95.362 356.704 95.5349 356.389 95.7151C356.073 95.8954 355.792 96.0424 355.547 96.1575C355.302 96.2722 355.006 96.3989 354.658 96.5379C354.311 96.6763 354.038 96.7804 353.841 96.8492C353.644 96.9181 353.394 97.0023 353.091 97.1023C352.788 97.2026 352.596 97.267 352.513 97.296L350.675 92.0343C350.758 92.0053 351.002 91.9141 351.409 91.7603C351.815 91.6066 352.148 91.4849 352.407 91.3943C352.667 91.3037 353.03 91.1939 353.498 91.0657C353.965 90.9372 354.366 90.8496 354.699 90.803C355.032 90.7567 355.405 90.7339 355.819 90.735C356.233 90.736 356.586 90.79 356.88 90.897C357.174 91.0044 357.449 91.1757 357.706 91.412C357.963 91.648 358.157 91.953 358.288 92.3267C358.389 92.6176 358.432 92.899 358.417 93.1724Z" fill="#F6543E" fill-opacity="0.19"/>
</g>
<g clip-path="url(#clip3_38_7)">
<path d="M358.597 167.051C358.462 166.343 358.045 165.692 357.348 165.098C358.621 165.096 359.51 164.446 360.015 163.148C360.202 162.68 360.275 162.229 360.235 161.794C360.195 161.36 360.05 160.953 359.798 160.574C359.547 160.194 359.241 159.847 358.88 159.531C358.52 159.216 358.083 158.898 357.571 158.579L358.874 156.013L357.306 155.217L356.039 157.711C355.768 157.574 355.351 157.37 354.787 157.101L356.064 154.586L354.496 153.79L353.193 156.356C352.966 156.249 352.635 156.085 352.2 155.865L350.047 154.759L349.199 156.429L350.33 157.002C350.845 157.264 351.03 157.648 350.884 158.155L349.401 161.077C349.469 161.111 349.521 161.142 349.558 161.17L349.395 161.087L347.317 165.18C347.087 165.498 346.803 165.572 346.463 165.399L345.333 164.826L344.072 166.529L346.108 167.562C346.237 167.628 346.423 167.724 346.666 167.852C346.908 167.979 347.09 168.074 347.213 168.136L345.895 170.732L347.463 171.528L348.765 168.962C349.047 169.114 349.459 169.328 350.002 169.603L348.705 172.159L350.273 172.955L351.591 170.359C352.161 170.614 352.681 170.814 353.15 170.958C353.619 171.102 354.09 171.194 354.565 171.235C355.04 171.275 355.47 171.243 355.855 171.14C356.24 171.037 356.612 170.846 356.972 170.568C357.331 170.289 357.657 169.921 357.949 169.463C358.516 168.564 358.732 167.76 358.597 167.051ZM353.887 158.949C353.935 158.973 354.07 159.04 354.292 159.148C354.515 159.257 354.699 159.346 354.847 159.417C354.995 159.488 355.187 159.596 355.425 159.742C355.662 159.888 355.857 160.022 356.009 160.142C356.162 160.262 356.32 160.413 356.484 160.594C356.648 160.775 356.763 160.953 356.828 161.127C356.893 161.301 356.925 161.496 356.921 161.712C356.918 161.928 356.86 162.149 356.746 162.373C356.65 162.563 356.531 162.72 356.391 162.845C356.251 162.971 356.093 163.055 355.917 163.098C355.742 163.141 355.569 163.169 355.401 163.182C355.232 163.194 355.036 163.173 354.812 163.119C354.587 163.065 354.394 163.014 354.231 162.965C354.067 162.916 353.871 162.84 353.642 162.737C353.413 162.633 353.24 162.554 353.123 162.499C353.005 162.443 352.848 162.363 352.649 162.258C352.45 162.153 352.334 162.092 352.3 162.075L353.887 158.949L353.887 158.949L353.887 158.949ZM354.649 168.056C354.505 168.18 354.353 168.273 354.192 168.337C354.032 168.401 353.846 168.434 353.635 168.438C353.424 168.442 353.226 168.431 353.043 168.406C352.859 168.382 352.647 168.333 352.405 168.262C352.164 168.191 351.956 168.121 351.781 168.054C351.606 167.987 351.401 167.899 351.165 167.792C350.929 167.685 350.746 167.599 350.617 167.534C350.488 167.468 350.326 167.383 350.131 167.28C349.936 167.177 349.811 167.112 349.757 167.084L351.504 163.643C351.558 163.67 351.721 163.749 351.993 163.878C352.265 164.007 352.485 164.115 352.655 164.201C352.824 164.287 353.054 164.416 353.342 164.589C353.63 164.76 353.866 164.918 354.049 165.062C354.232 165.207 354.422 165.382 354.62 165.589C354.818 165.797 354.961 165.999 355.048 166.197C355.135 166.395 355.182 166.615 355.187 166.857C355.193 167.099 355.133 167.342 355.009 167.586C354.912 167.776 354.792 167.933 354.649 168.056Z" fill="#F6543E" fill-opacity="0.19"/>
</g>
<g clip-path="url(#clip4_38_7)">
<path d="M250.929 143.32C250.35 142.889 249.602 142.692 248.687 142.728C249.623 141.864 249.837 140.784 249.331 139.487C249.151 139.015 248.9 138.634 248.577 138.341C248.253 138.048 247.871 137.848 247.429 137.738C246.987 137.629 246.526 137.581 246.047 137.592C245.569 137.604 245.032 137.666 244.439 137.777L243.661 135.007L241.968 135.482L242.724 138.176C242.431 138.258 241.986 138.391 241.39 138.574L240.627 135.859L238.934 136.334L239.712 139.104C239.472 139.18 239.118 139.283 238.649 139.415L236.315 140.058L236.821 141.861L238.041 141.518C238.598 141.362 238.994 141.52 239.23 141.991L240.115 145.146C240.189 145.126 240.248 145.113 240.295 145.108L240.119 145.158L241.359 149.577C241.406 149.967 241.246 150.214 240.879 150.316L239.659 150.659L239.883 152.767L242.082 152.149C242.221 152.11 242.423 152.055 242.688 151.985C242.953 151.914 243.151 151.861 243.283 151.824L244.07 154.627L245.763 154.151L244.986 151.381C245.295 151.302 245.743 151.18 246.33 151.016L247.104 153.775L248.797 153.3L248.01 150.496C248.603 150.298 249.121 150.094 249.563 149.882C250.006 149.671 250.416 149.42 250.793 149.128C251.169 148.837 251.464 148.522 251.678 148.185C251.892 147.849 252.037 147.456 252.113 147.008C252.188 146.56 252.179 146.068 252.084 145.533C251.894 144.488 251.508 143.75 250.929 143.32ZM241.978 140.543C242.029 140.529 242.173 140.486 242.411 140.416C242.648 140.345 242.845 140.286 243.001 140.238C243.158 140.19 243.373 140.14 243.647 140.087C243.92 140.033 244.154 140 244.347 139.985C244.541 139.97 244.759 139.974 245.003 139.996C245.247 140.019 245.451 140.072 245.617 140.156C245.783 140.24 245.938 140.362 246.082 140.524C246.226 140.685 246.332 140.886 246.4 141.128C246.457 141.333 246.477 141.529 246.458 141.717C246.44 141.904 246.38 142.073 246.281 142.223C246.181 142.374 246.073 142.511 245.957 142.634C245.841 142.758 245.683 142.875 245.481 142.987C245.279 143.099 245.102 143.193 244.949 143.267C244.796 143.342 244.6 143.418 244.361 143.497C244.122 143.576 243.941 143.635 243.818 143.674C243.694 143.712 243.524 143.76 243.306 143.817C243.089 143.874 242.962 143.908 242.926 143.918L241.978 140.543L241.978 140.543L241.978 140.543ZM248.703 146.732C248.68 146.92 248.632 147.092 248.557 147.247C248.482 147.403 248.368 147.553 248.215 147.699C248.062 147.845 247.91 147.97 247.758 148.076C247.606 148.183 247.417 148.291 247.191 148.402C246.965 148.513 246.765 148.602 246.59 148.671C246.416 148.74 246.206 148.815 245.96 148.896C245.713 148.976 245.521 149.037 245.382 149.076C245.242 149.115 245.066 149.162 244.852 149.218C244.639 149.275 244.503 149.311 244.444 149.327L243.401 145.611C243.459 145.595 243.632 145.542 243.92 145.454C244.207 145.365 244.443 145.295 244.626 145.244C244.809 145.192 245.065 145.132 245.394 145.064C245.722 144.995 246.003 144.952 246.235 144.934C246.467 144.916 246.726 144.917 247.012 144.935C247.298 144.954 247.54 145.006 247.738 145.093C247.937 145.18 248.12 145.31 248.287 145.484C248.455 145.659 248.576 145.878 248.65 146.142C248.707 146.347 248.725 146.544 248.703 146.732Z" fill="#F6543E" fill-opacity="0.19"/>
</g>
<g clip-path="url(#clip5_38_7)" filter="url(#filter3_f_38_7)">
<path d="M32.4438 82.0432C32.2346 81.5542 31.832 81.1511 31.2359 80.8341C32.1524 80.6314 32.69 80.023 32.849 79.0091C32.9094 78.6421 32.891 78.3057 32.7936 77.9993C32.6962 77.6928 32.5273 77.423 32.2863 77.1894C32.0456 76.9557 31.7701 76.7538 31.4608 76.5837C31.1515 76.4135 30.787 76.2537 30.3678 76.1043L30.9008 74.0512L29.6463 73.7255L29.1281 75.7215C28.9108 75.6651 28.5781 75.5845 28.13 75.4798L28.6524 73.4675L27.3977 73.1417L26.8647 75.1948C26.684 75.1537 26.4199 75.0881 26.0723 74.9979L24.3473 74.5412L24.0004 75.8774L24.9047 76.1121C25.3175 76.2193 25.5112 76.4668 25.4859 76.8544L24.8789 79.1926C24.9333 79.2068 24.9759 79.2208 25.0071 79.2347L24.8767 79.2009L24.0265 82.4759C23.9112 82.7415 23.7177 82.8392 23.4461 82.7687L22.5419 82.534L21.9022 83.9594L23.5317 84.3824C23.6349 84.4092 23.7838 84.4493 23.9788 84.5025C24.1736 84.556 24.3198 84.5955 24.4176 84.6209L23.8782 86.6983L25.1331 87.0241L25.6661 84.9711C25.8928 85.0358 26.2234 85.1245 26.6579 85.2373L26.127 87.2821L27.3816 87.6079L27.9209 85.5304C28.372 85.6243 28.7776 85.6864 29.1379 85.716C29.4984 85.7455 29.8527 85.7377 30.2009 85.6917C30.5489 85.6459 30.8535 85.5553 31.1147 85.4202C31.3759 85.2853 31.6137 85.0889 31.8286 84.8316C32.043 84.5742 32.2195 84.2576 32.3576 83.8818C32.6244 83.1454 32.653 82.5325 32.4438 82.0432ZM27.7737 76.9524C27.8118 76.9623 27.9194 76.9888 28.0966 77.0318C28.2739 77.0749 28.4212 77.1103 28.5387 77.1378C28.6562 77.1655 28.8119 77.2132 29.006 77.281C29.2 77.3487 29.3614 77.4138 29.4901 77.4762C29.6188 77.5385 29.7567 77.6222 29.9032 77.7269C30.0501 77.8317 30.1606 77.9416 30.235 78.0565C30.3096 78.1715 30.3628 78.3071 30.3946 78.4632C30.4266 78.6194 30.4193 78.787 30.3728 78.9662C30.3333 79.1183 30.2729 79.2505 30.1917 79.3629C30.1105 79.4751 30.0098 79.5606 29.8903 79.6194C29.7708 79.6783 29.6511 79.7255 29.5317 79.7611C29.4124 79.7968 29.2675 79.8128 29.0974 79.8092C28.9274 79.8057 28.7798 79.7993 28.6548 79.7899C28.5296 79.7807 28.3764 79.7569 28.195 79.7184C28.0136 79.68 27.8764 79.6503 27.7834 79.629C27.6903 79.6077 27.5641 79.5749 27.4045 79.5306C27.2449 79.4863 27.1517 79.4606 27.1245 79.4535L27.7738 76.9524L27.7737 76.9524L27.7737 76.9524ZM29.7593 83.3899C29.6751 83.5015 29.5805 83.5929 29.4751 83.6642C29.3696 83.7352 29.2411 83.7889 29.0898 83.8249C28.9384 83.8611 28.7945 83.8845 28.6584 83.8955C28.5221 83.9067 28.3615 83.9054 28.1767 83.8923C27.9915 83.879 27.8308 83.8618 27.6941 83.8409C27.5575 83.82 27.3959 83.7895 27.2091 83.7498C27.0224 83.7099 26.8773 83.6766 26.7741 83.6498C26.6709 83.623 26.5409 83.5877 26.3841 83.5442C26.2272 83.5007 26.1271 83.4733 26.0836 83.462L26.7986 80.7082C26.842 80.7194 26.9717 80.7503 27.1877 80.8004C27.4038 80.8507 27.5795 80.8936 27.7153 80.9288C27.8511 80.9641 28.0364 81.0208 28.2712 81.0993C28.5059 81.1774 28.7005 81.254 28.8551 81.3289C29.0096 81.4038 29.1743 81.5001 29.3496 81.6182C29.5247 81.7361 29.6595 81.8595 29.7536 81.9883C29.8477 82.1172 29.9157 82.268 29.9577 82.4413C29.9998 82.6145 29.9954 82.7989 29.9447 82.9945C29.9051 83.1467 29.8434 83.2783 29.7593 83.3899Z" fill="#F6543E" fill-opacity="0.19"/>
</g>
<g clip-path="url(#clip6_38_7)" filter="url(#filter4_f_38_7)">
<path d="M69.9634 184.043C69.7541 183.554 69.3515 183.151 68.7554 182.834C69.6719 182.631 70.2095 182.023 70.3685 181.009C70.4289 180.642 70.4105 180.306 70.3132 179.999C70.2157 179.693 70.0469 179.423 69.8059 179.189C69.5651 178.956 69.2897 178.754 68.9804 178.584C68.671 178.414 68.3066 178.254 67.8873 178.104L68.4204 176.051L67.1658 175.725L66.6476 177.722C66.4304 177.665 66.0977 177.585 65.6495 177.48L66.172 175.467L64.9172 175.142L64.3842 177.195C64.2035 177.154 63.9394 177.088 63.5918 176.998L61.8668 176.541L61.5199 177.877L62.4242 178.112C62.837 178.219 63.0307 178.467 63.0055 178.854L62.3984 181.193C62.4528 181.207 62.4955 181.221 62.5267 181.235L62.3963 181.201L61.546 184.476C61.4307 184.742 61.2372 184.839 60.9656 184.769L60.0614 184.534L59.4218 185.959L61.0512 186.382C61.1544 186.409 61.3033 186.449 61.4983 186.503C61.6931 186.556 61.8393 186.595 61.9371 186.621L61.3978 188.698L62.6527 189.024L63.1857 186.971C63.4123 187.036 63.7429 187.125 64.1774 187.237L63.6465 189.282L64.9011 189.608L65.4405 187.53C65.8915 187.624 66.2972 187.686 66.6575 187.716C67.0179 187.746 67.3723 187.738 67.7204 187.692C68.0684 187.646 68.3731 187.555 68.6342 187.42C68.8954 187.285 69.1332 187.089 69.3481 186.832C69.5626 186.574 69.7391 186.258 69.8771 185.882C70.144 185.145 70.1726 184.532 69.9634 184.043ZM65.2932 178.952C65.3313 178.962 65.4389 178.989 65.6161 179.032C65.7935 179.075 65.9408 179.11 66.0582 179.138C66.1757 179.165 66.3315 179.213 66.5256 179.281C66.7196 179.349 66.8809 179.414 67.0096 179.476C67.1383 179.539 67.2762 179.622 67.4228 179.727C67.5696 179.832 67.6802 179.942 67.7545 180.057C67.8291 180.172 67.8823 180.307 67.9141 180.463C67.9461 180.619 67.9389 180.787 67.8923 180.966C67.8528 181.118 67.7925 181.251 67.7112 181.363C67.63 181.475 67.5294 181.561 67.4099 181.619C67.2903 181.678 67.1706 181.726 67.0512 181.761C66.9319 181.797 66.787 181.813 66.617 181.809C66.447 181.806 66.2994 181.799 66.1743 181.79C66.0491 181.781 65.8959 181.757 65.7146 181.718C65.5332 181.68 65.3959 181.65 65.3029 181.629C65.2099 181.608 65.0836 181.575 64.924 181.531C64.7644 181.486 64.6712 181.461 64.644 181.454L65.2933 178.952L65.2933 178.952L65.2932 178.952ZM67.2788 185.39C67.1947 185.501 67.1 185.593 66.9946 185.664C66.8891 185.735 66.7606 185.789 66.6093 185.825C66.458 185.861 66.3141 185.884 66.178 185.896C66.0417 185.907 65.8811 185.905 65.6962 185.892C65.511 185.879 65.3504 185.862 65.2136 185.841C65.0771 185.82 64.9155 185.79 64.7286 185.75C64.5419 185.71 64.3968 185.677 64.2937 185.65C64.1905 185.623 64.0605 185.588 63.9036 185.544C63.7467 185.501 63.6467 185.473 63.6032 185.462L64.3181 182.708C64.3615 182.719 64.4912 182.75 64.7072 182.8C64.9233 182.851 65.099 182.894 65.2348 182.929C65.3706 182.964 65.556 183.021 65.7908 183.099C66.0254 183.177 66.2201 183.254 66.3747 183.329C66.5291 183.404 66.6938 183.5 66.8691 183.618C67.0443 183.736 67.179 183.859 67.2731 183.988C67.3672 184.117 67.4353 184.268 67.4772 184.441C67.5194 184.615 67.515 184.799 67.4642 184.995C67.4246 185.147 67.363 185.278 67.2788 185.39Z" fill="#F6543E" fill-opacity="0.09"/>
</g>
<g clip-path="url(#clip7_38_7)">
<path d="M145.319 88.0543C144.445 87.4863 143.351 87.269 142.035 87.4026C143.306 86.0737 143.518 84.4976 142.671 82.6738C142.37 82.0106 141.973 81.4831 141.481 81.0905C140.988 80.6979 140.419 80.4426 139.772 80.3251C139.125 80.2071 138.457 80.1788 137.768 80.2389C137.079 80.2992 136.312 80.4362 135.466 80.65L134.096 76.7271L131.699 77.5644L133.031 81.3782C132.616 81.5232 131.987 81.7547 131.143 82.0727L129.8 78.2277L127.403 79.0651L128.773 82.9879C128.434 83.118 127.933 83.299 127.268 83.531L123.963 84.668L124.855 87.221L126.582 86.6175C127.371 86.342 127.956 86.5336 128.338 87.1921L129.898 91.6599C130.002 91.6236 130.087 91.5999 130.153 91.5885L129.904 91.6756L132.089 97.9332C132.191 98.4913 131.983 98.8612 131.464 99.0425L129.736 99.6459L130.249 102.663L133.362 101.576C133.559 101.507 133.845 101.41 134.221 101.284C134.596 101.159 134.877 101.064 135.064 100.998L136.45 104.968L138.848 104.13L137.478 100.208C137.917 100.066 138.552 99.8499 139.382 99.5599L140.747 103.467L143.144 102.63L141.758 98.6603C142.594 98.3215 143.322 97.9804 143.941 97.6358C144.56 97.2911 145.128 96.8921 145.645 96.4378C146.161 95.9839 146.559 95.5044 146.836 94.9998C147.114 94.4955 147.287 93.9167 147.357 93.2636C147.425 92.6108 147.368 91.9032 147.183 91.1409C146.814 89.6514 146.193 88.6225 145.319 88.0543ZM132.168 84.858C132.241 84.8326 132.445 84.7584 132.781 84.6354C133.116 84.5122 133.394 84.4092 133.616 84.3261C133.837 84.243 134.143 84.1508 134.532 84.0496C134.922 83.9484 135.256 83.8786 135.533 83.8398C135.811 83.801 136.126 83.7869 136.479 83.7976C136.832 83.808 137.132 83.8664 137.378 83.9725C137.625 84.0784 137.859 84.2411 138.081 84.4606C138.304 84.6798 138.474 84.9607 138.594 85.3031C138.696 85.5937 138.741 85.8747 138.732 86.1461C138.722 86.4172 138.651 86.6661 138.521 86.8921C138.39 87.1182 138.247 87.3257 138.091 87.5138C137.936 87.7018 137.718 87.8859 137.437 88.0654C137.156 88.2449 136.909 88.3953 136.695 88.5165C136.482 88.6378 136.206 88.7661 135.869 88.9012C135.532 89.0363 135.276 89.1375 135.102 89.2043C134.927 89.271 134.686 89.3553 134.378 89.4571C134.069 89.559 133.89 89.6187 133.838 89.6369L132.169 84.8579L132.168 84.858L132.168 84.858ZM142.417 93.1724C142.402 93.4457 142.347 93.6977 142.253 93.9286C142.159 94.1592 142.008 94.3866 141.801 94.6101C141.595 94.834 141.386 95.0289 141.176 95.1952C140.967 95.362 140.704 95.5349 140.389 95.7151C140.073 95.8954 139.792 96.0424 139.547 96.1575C139.302 96.2722 139.006 96.3989 138.658 96.5379C138.311 96.6763 138.038 96.7804 137.841 96.8492C137.644 96.9181 137.394 97.0023 137.091 97.1023C136.788 97.2026 136.596 97.267 136.513 97.296L134.675 92.0343C134.758 92.0053 135.002 91.9141 135.409 91.7603C135.815 91.6066 136.148 91.4849 136.407 91.3943C136.667 91.3037 137.03 91.1939 137.498 91.0657C137.965 90.9372 138.366 90.8496 138.699 90.803C139.032 90.7567 139.405 90.7339 139.819 90.735C140.233 90.736 140.586 90.79 140.88 90.897C141.174 91.0044 141.449 91.1757 141.706 91.412C141.964 91.648 142.157 91.953 142.288 92.3267C142.389 92.6176 142.432 92.899 142.417 93.1724Z" fill="#F6543E" fill-opacity="0.19"/>
</g>
<g clip-path="url(#clip8_38_7)">
<path d="M32.5969 149.051C32.4617 148.343 32.0453 147.692 31.3475 147.098C32.6208 147.096 33.5099 146.446 34.0151 145.148C34.2018 144.68 34.2751 144.229 34.2351 143.794C34.1949 143.36 34.0496 142.953 33.798 142.574C33.5469 142.194 33.2406 141.847 32.8801 141.531C32.5196 141.216 32.0831 140.898 31.571 140.579L32.8736 138.013L31.3058 137.217L30.0394 139.711C29.7679 139.574 29.3504 139.37 28.787 139.101L30.0638 136.586L28.4958 135.79L27.1932 138.356C26.9656 138.249 26.6347 138.085 26.2003 137.865L24.0472 136.759L23.1994 138.429L24.3294 139.002C24.8453 139.264 25.0302 139.648 24.8841 140.155L23.4005 143.077C23.4685 143.111 23.5209 143.142 23.5583 143.17L23.3953 143.087L21.3174 147.18C21.0874 147.498 20.8027 147.572 20.4632 147.399L19.3333 146.826L18.0716 148.529L20.1079 149.562C20.2369 149.628 20.4226 149.724 20.6655 149.852C20.908 149.979 21.0904 150.074 21.2126 150.136L19.8944 152.732L21.4627 153.528L22.7653 150.962C23.0468 151.114 23.4591 151.328 24.0021 151.603L22.7047 154.159L24.2726 154.955L25.5907 152.359C26.1612 152.614 26.6806 152.814 27.1495 152.958C27.6186 153.102 28.0904 153.194 28.565 153.235C29.0395 153.275 29.4695 153.243 29.8548 153.14C30.2401 153.037 30.6122 152.846 30.9717 152.568C31.3307 152.289 31.6565 151.921 31.9486 151.463C32.5161 150.564 32.7321 149.76 32.5969 149.051ZM27.8872 140.949C27.9347 140.973 28.0696 141.04 28.292 141.148C28.5145 141.257 28.6993 141.346 28.847 141.417C28.9947 141.488 29.1872 141.596 29.4247 141.742C29.6621 141.888 29.857 142.022 30.0094 142.142C30.1619 142.262 30.3202 142.413 30.4841 142.594C30.6483 142.775 30.7628 142.953 30.828 143.127C30.8934 143.301 30.9245 143.496 30.9213 143.712C30.9184 143.928 30.86 144.149 30.7463 144.373C30.6498 144.563 30.5314 144.72 30.3911 144.845C30.251 144.971 30.0927 145.055 29.9173 145.098C29.7418 145.141 29.5694 145.169 29.4008 145.182C29.2324 145.194 29.0357 145.173 28.8115 145.119C28.5872 145.065 28.3935 145.014 28.2305 144.965C28.0673 144.916 27.8712 144.84 27.6421 144.737C27.4129 144.633 27.2396 144.554 27.1226 144.499C27.0054 144.443 26.8477 144.363 26.6491 144.258C26.4504 144.153 26.3344 144.092 26.3004 144.075L27.8873 140.949L27.8872 140.949L27.8872 140.949ZM28.6485 150.056C28.5045 150.18 28.3525 150.273 28.1922 150.337C28.0318 150.401 27.8459 150.434 27.635 150.438C27.4239 150.442 27.2264 150.431 27.0429 150.406C26.859 150.382 26.6466 150.333 26.4054 150.262C26.1639 150.191 25.956 150.121 25.7808 150.054C25.606 149.987 25.4007 149.899 25.1646 149.792C24.9288 149.685 24.7462 149.599 24.6173 149.534C24.4883 149.468 24.3263 149.383 24.1312 149.28C23.9358 149.177 23.8112 149.112 23.7569 149.084L25.5041 145.643C25.5584 145.67 25.7213 145.749 25.993 145.878C26.2647 146.007 26.485 146.115 26.6548 146.201C26.8244 146.287 27.0536 146.416 27.342 146.589C27.6302 146.76 27.8659 146.918 28.049 147.062C28.2319 147.207 28.4222 147.382 28.6202 147.589C28.818 147.797 28.9607 147.999 29.0481 148.197C29.1353 148.395 29.1816 148.615 29.1869 148.857C29.1924 149.099 29.133 149.342 29.0089 149.586C28.9123 149.776 28.7924 149.933 28.6485 150.056Z" fill="#F6543E" fill-opacity="0.19"/>
</g>
<g clip-path="url(#clip9_38_7)">
<path d="M33.929 213.32C33.3497 212.889 32.6025 212.692 31.6873 212.728C32.623 211.864 32.8375 210.784 32.3312 209.487C32.1513 209.015 31.8999 208.634 31.5765 208.341C31.2529 208.048 30.8707 207.848 30.4287 207.738C29.9869 207.629 29.5262 207.581 29.0474 207.592C28.5686 207.604 28.0323 207.666 27.4389 207.777L26.6611 205.007L24.9682 205.482L25.7244 208.176C25.4313 208.258 24.9863 208.391 24.3895 208.574L23.6271 205.859L21.9341 206.334L22.7119 209.104C22.472 209.18 22.1177 209.283 21.6486 209.415L19.315 210.058L19.8211 211.861L21.0413 211.518C21.5983 211.362 21.9945 211.52 22.2296 211.991L23.1154 215.146C23.1888 215.126 23.2485 215.113 23.2945 215.108L23.1186 215.158L24.3593 219.577C24.4056 219.967 24.2456 220.214 23.8791 220.316L22.659 220.659L22.883 222.767L25.0817 222.149C25.221 222.11 25.4229 222.055 25.6878 221.985C25.9526 221.914 26.151 221.861 26.2829 221.824L27.07 224.627L28.7633 224.151L27.9855 221.381C28.2953 221.302 28.7434 221.18 29.3297 221.016L30.1044 223.775L31.7973 223.3L31.0102 220.496C31.6031 220.298 32.1209 220.094 32.5634 219.882C33.0061 219.671 33.416 219.42 33.7926 219.128C34.1692 218.837 34.4644 218.522 34.6781 218.185C34.8921 217.849 35.0366 217.456 35.1127 217.008C35.1882 216.56 35.1788 216.068 35.0839 215.533C34.8936 214.488 34.5084 213.75 33.929 213.32ZM24.9779 210.543C25.0292 210.529 25.1735 210.486 25.4106 210.416C25.6479 210.345 25.8446 210.286 26.0012 210.238C26.1578 210.19 26.3729 210.14 26.6467 210.087C26.9203 210.033 27.1539 210 27.3473 209.985C27.5408 209.97 27.7595 209.974 28.0028 209.996C28.2465 210.019 28.4511 210.072 28.6168 210.156C28.7828 210.24 28.9378 210.362 29.0817 210.524C29.2259 210.685 29.3319 210.886 29.3998 211.128C29.4574 211.333 29.477 211.529 29.4584 211.717C29.44 211.904 29.3804 212.073 29.2805 212.223C29.1806 212.374 29.0726 212.511 28.957 212.634C28.8415 212.758 28.6826 212.875 28.4809 212.987C28.2792 213.099 28.1018 213.193 27.9489 213.267C27.7959 213.342 27.6001 213.418 27.3612 213.497C27.1224 213.576 26.9412 213.635 26.8177 213.674C26.6941 213.712 26.5237 213.76 26.3064 213.817C26.0891 213.874 25.9623 213.908 25.9255 213.918L24.978 210.543L24.9779 210.543L24.9779 210.543ZM31.7027 216.732C31.6802 216.92 31.6317 217.092 31.5569 217.247C31.4818 217.403 31.3678 217.553 31.2151 217.699C31.0624 217.845 30.9098 217.97 30.7578 218.076C30.6057 218.183 30.4165 218.291 30.191 218.402C29.9648 218.513 29.7648 218.602 29.5902 218.671C29.4159 218.74 29.2057 218.815 28.9596 218.896C28.7135 218.976 28.5207 219.037 28.3815 219.076C28.2423 219.115 28.0658 219.162 27.8522 219.218C27.6386 219.275 27.5026 219.311 27.4439 219.327L26.4007 215.611C26.4592 215.595 26.6323 215.542 26.9198 215.454C27.2073 215.365 27.4426 215.295 27.6258 215.244C27.809 215.192 28.065 215.132 28.3938 215.064C28.7222 214.995 29.0026 214.952 29.235 214.934C29.4672 214.916 29.726 214.917 30.0122 214.935C30.298 214.954 30.5401 215.006 30.7385 215.093C30.9368 215.18 31.1196 215.31 31.2871 215.484C31.4549 215.659 31.5757 215.878 31.6498 216.142C31.7074 216.347 31.725 216.544 31.7027 216.732Z" fill="#F6543E" fill-opacity="0.19"/>
</g>
<defs>
<filter id="filter0_f_38_7" x="-555.421" y="-173.421" width="1425.84" height="550.843" filterUnits="userSpaceOnUse" color-interpolation-filters="sRGB">
<feFlood flood-opacity="0" result="BackgroundImageFix"/>
<feBlend mode="normal" in="SourceGraphic" in2="BackgroundImageFix" result="shape"/>
<feGaussianBlur stdDeviation="117.211" result="effect1_foregroundBlur_38_7"/>
</filter>
<filter id="filter1_f_38_7" x="235.18" y="70.7" width="19.676" height="19.676" filterUnits="userSpaceOnUse" color-interpolation-filters="sRGB">
<feFlood flood-opacity="0" result="BackgroundImageFix"/>
<feBlend mode="normal" in="SourceGraphic" in2="BackgroundImageFix" result="shape"/>
<feGaussianBlur stdDeviation="0.65" result="effect1_foregroundBlur_38_7"/>
</filter>
<filter id="filter2_f_38_7" x="349.7" y="188.7" width="19.676" height="19.676" filterUnits="userSpaceOnUse" color-interpolation-filters="sRGB">
<feFlood flood-opacity="0" result="BackgroundImageFix"/>
<feBlend mode="normal" in="SourceGraphic" in2="BackgroundImageFix" result="shape"/>
<feGaussianBlur stdDeviation="0.65" result="effect1_foregroundBlur_38_7"/>
</filter>
<filter id="filter3_f_38_7" x="18.1805" y="70.7" width="19.676" height="19.676" filterUnits="userSpaceOnUse" color-interpolation-filters="sRGB">
<feFlood flood-opacity="0" result="BackgroundImageFix"/>
<feBlend mode="normal" in="SourceGraphic" in2="BackgroundImageFix" result="shape"/>
<feGaussianBlur stdDeviation="0.65" result="effect1_foregroundBlur_38_7"/>
</filter>
<filter id="filter4_f_38_7" x="55.7" y="172.7" width="19.676" height="19.676" filterUnits="userSpaceOnUse" color-interpolation-filters="sRGB">
<feFlood flood-opacity="0" result="BackgroundImageFix"/>
<feBlend mode="normal" in="SourceGraphic" in2="BackgroundImageFix" result="shape"/>
<feGaussianBlur stdDeviation="0.65" result="effect1_foregroundBlur_38_7"/>
</filter>
<linearGradient id="paint0_linear_38_7" x1="157.5" y1="61" x2="157.5" y2="143" gradientUnits="userSpaceOnUse">
<stop stop-color="white"/>
<stop offset="1" stop-color="#E45A23"/>
</linearGradient>
<clipPath id="clip0_38_7">
<rect width="14.0059" height="14.0059" fill="white" transform="translate(240 72) rotate(14.5538)"/>
</clipPath>
<clipPath id="clip1_38_7">
<rect width="14.0059" height="14.0059" fill="white" transform="translate(354.52 190) rotate(14.5538)"/>
</clipPath>
<clipPath id="clip2_38_7">
<rect width="27.4373" height="27.4373" fill="white" transform="translate(335 82) rotate(-19.2536)"/>
</clipPath>
<clipPath id="clip3_38_7">
<rect width="19" height="19" fill="white" transform="translate(349 151) rotate(26.9173)"/>
</clipPath>
<clipPath id="clip4_38_7">
<rect width="19" height="19" fill="white" transform="translate(233 138) rotate(-15.6823)"/>
</clipPath>
<clipPath id="clip5_38_7">
<rect width="14.0059" height="14.0059" fill="white" transform="translate(23 72) rotate(14.5538)"/>
</clipPath>
<clipPath id="clip6_38_7">
<rect width="14.0059" height="14.0059" fill="white" transform="translate(60.5195 174) rotate(14.5538)"/>
</clipPath>
<clipPath id="clip7_38_7">
<rect width="27.4373" height="27.4373" fill="white" transform="translate(119 82) rotate(-19.2536)"/>
</clipPath>
<clipPath id="clip8_38_7">
<rect width="19" height="19" fill="white" transform="translate(23 133) rotate(26.9173)"/>
</clipPath>
<clipPath id="clip9_38_7">
<rect width="19" height="19" fill="white" transform="translate(16 208) rotate(-15.6823)"/>
</clipPath>
</defs>
</svg>
