<svg width="42" height="42" viewBox="0 0 42 42" fill="none" xmlns="http://www.w3.org/2000/svg">
<rect opacity="0.1" width="41.5744" height="41.5744" rx="13.3632" fill="#F7543E"/>
<g clip-path="url(#clip0_14_1102)">
<path d="M26.7173 21.226C26.3034 20.6907 25.6787 20.323 24.8434 20.1232C25.9071 19.5806 26.3746 18.6597 26.2462 17.3604C26.2033 16.8892 26.0731 16.4809 25.8553 16.1347C25.6373 15.7885 25.3432 15.5102 24.9717 15.2996C24.6006 15.0888 24.1969 14.9283 23.7616 14.8177C23.3263 14.7071 22.8265 14.6267 22.2625 14.5768V11.8784H20.6136V14.5018C20.3281 14.5018 19.8927 14.509 19.3074 14.5232V11.8784H17.6583V14.5768C17.4226 14.584 17.0765 14.5876 16.6196 14.5876L14.3496 14.5768V16.3329H15.5381C16.0806 16.3329 16.3983 16.5757 16.4911 17.0611V20.1343C16.5626 20.1343 16.6196 20.138 16.6625 20.1451H16.4911V24.4495C16.4341 24.8135 16.2271 24.9956 15.8701 24.9956H14.6817L14.3497 26.9552H16.4913C16.6269 26.9552 16.8231 26.957 17.0802 26.9602C17.3372 26.9638 17.5298 26.9656 17.6584 26.9656V29.6961H19.3077V26.9977C19.6075 27.0051 20.0429 27.0086 20.614 27.0086V29.6961H22.2629V26.9656C22.8484 26.9371 23.3677 26.8839 23.8208 26.8051C24.2741 26.7263 24.7079 26.6033 25.1218 26.4355C25.5357 26.2678 25.8819 26.0589 26.1602 25.809C26.4387 25.5594 26.6688 25.2416 26.8511 24.856C27.0329 24.4705 27.149 24.0243 27.1988 23.5174C27.292 22.5254 27.1313 21.7615 26.7173 21.226ZM19.3394 16.4504C19.3894 16.4504 19.5304 16.4486 19.7624 16.445C19.9945 16.4413 20.1872 16.4378 20.3407 16.4342C20.4942 16.4307 20.7012 16.4396 20.9619 16.461C21.2224 16.4824 21.4419 16.511 21.6203 16.5467C21.7987 16.5823 21.9952 16.6412 22.2092 16.7233C22.4235 16.8053 22.5947 16.9053 22.7231 17.0231C22.8517 17.1409 22.9605 17.2908 23.0496 17.4729C23.1389 17.6549 23.1835 17.8637 23.1835 18.0992C23.1835 18.2991 23.1515 18.4812 23.0873 18.6455C23.0233 18.8096 22.9266 18.9471 22.7983 19.0577C22.6699 19.1684 22.5376 19.2649 22.4019 19.3469C22.2664 19.4289 22.0932 19.495 21.8827 19.5449C21.6722 19.5949 21.4884 19.6342 21.3314 19.6627C21.1743 19.6913 20.9781 19.711 20.7425 19.7216C20.5068 19.7323 20.3283 19.7395 20.207 19.7431C20.0856 19.7466 19.9197 19.7466 19.709 19.7431C19.4983 19.7395 19.3753 19.7377 19.3396 19.7377V16.4504H19.3394V16.4504ZM23.8423 23.7424C23.7743 23.9066 23.687 24.0495 23.58 24.1709C23.4728 24.2921 23.3317 24.3993 23.1569 24.4919C22.9821 24.5849 22.8124 24.6597 22.6484 24.7168C22.4841 24.7742 22.2859 24.8239 22.0542 24.8668C21.8219 24.9097 21.6185 24.9399 21.4435 24.9578C21.2687 24.9757 21.0599 24.9899 20.8171 25.0007C20.5745 25.0112 20.3852 25.0167 20.2497 25.0167C20.114 25.0167 19.9426 25.0147 19.7356 25.0112C19.5285 25.0079 19.3965 25.0061 19.3394 25.0061V21.3867C19.3964 21.3867 19.566 21.3832 19.848 21.3759C20.1301 21.3687 20.3602 21.3654 20.5387 21.3654C20.7171 21.3654 20.9635 21.3759 21.2777 21.3975C21.5916 21.4187 21.8558 21.4507 22.0701 21.4936C22.2842 21.5365 22.5178 21.6024 22.7714 21.6917C23.0248 21.7809 23.2301 21.8898 23.3872 22.0183C23.5443 22.147 23.6762 22.3109 23.7833 22.5109C23.8906 22.7107 23.9441 22.9392 23.9441 23.1962C23.9441 23.3963 23.9102 23.5781 23.8423 23.7424Z" fill="#F6543E"/>
</g>
<defs>
<clipPath id="clip0_14_1102">
<rect width="17.8176" height="17.8176" fill="white" transform="translate(11.8783 11.8784)"/>
</clipPath>
</defs>
</svg>
