<svg width="24" height="24" viewBox="0 0 24 24" fill="none" xmlns="http://www.w3.org/2000/svg">
<g clip-path="url(#clip0_13_747)">
<path d="M19.6689 12.8269C19.1344 12.1357 18.3279 11.661 17.2493 11.403C18.6228 10.7024 19.2264 9.51338 19.0606 7.83566C19.0052 7.22729 18.8371 6.70003 18.5558 6.2531C18.2744 5.80608 17.8946 5.44671 17.415 5.17485C16.9358 4.90265 16.4146 4.69543 15.8526 4.55258C15.2904 4.40972 14.6451 4.30599 13.9169 4.24154V0.757385H11.7879V4.14473C11.4192 4.14473 10.857 4.15393 10.1013 4.17238V0.757385H7.97197V4.24154C7.66771 4.25079 7.22074 4.25548 6.63086 4.25548L3.69983 4.24154V6.50903H5.2344C5.93493 6.50903 6.3451 6.8225 6.4649 7.44918V11.4173C6.5572 11.4173 6.63086 11.422 6.68621 11.4312H6.4649V16.989C6.39125 17.459 6.12398 17.6942 5.66307 17.6942H4.12859L3.69993 20.2244H6.46515C6.6403 20.2244 6.89362 20.2268 7.22558 20.2309C7.55734 20.2356 7.80611 20.2379 7.97207 20.2379V23.7634H10.1017V20.2793C10.4887 20.2888 11.0509 20.2933 11.7883 20.2933V23.7634H13.9174V20.2379C14.6733 20.2011 15.3439 20.1323 15.9289 20.0306C16.5142 19.9288 17.0743 19.7701 17.6088 19.5533C18.1432 19.3369 18.5902 19.0671 18.9496 18.7445C19.3092 18.4222 19.6062 18.0118 19.8417 17.514C20.0763 17.0162 20.2263 16.4401 20.2906 15.7855C20.411 14.5046 20.2034 13.5183 19.6689 12.8269ZM10.1427 6.6607C10.2072 6.6607 10.3892 6.65838 10.6888 6.65373C10.9885 6.64899 11.2373 6.64443 11.4354 6.63978C11.6336 6.63523 11.901 6.64676 12.2375 6.67441C12.5739 6.70206 12.8573 6.73901 13.0877 6.78501C13.318 6.83102 13.5718 6.9071 13.848 7.0131C14.1248 7.11901 14.3458 7.24811 14.5116 7.40017C14.6776 7.55223 14.8181 7.74588 14.9332 7.98094C15.0485 8.21595 15.1061 8.48554 15.1061 8.78966C15.1061 9.04777 15.0647 9.28287 14.9819 9.49498C14.8992 9.70694 14.7744 9.88442 14.6087 10.0273C14.4429 10.1702 14.2721 10.2947 14.0969 10.4006C13.922 10.5065 13.6982 10.5919 13.4264 10.6563C13.1547 10.7209 12.9173 10.7716 12.7147 10.8084C12.5119 10.8453 12.2584 10.8707 11.9542 10.8845C11.65 10.8982 11.4195 10.9076 11.2629 10.9122C11.1061 10.9167 10.8919 10.9167 10.6199 10.9122C10.3478 10.9076 10.189 10.9052 10.1428 10.9052V6.66066H10.1427V6.6607ZM15.9567 16.076C15.8689 16.2881 15.7562 16.4726 15.618 16.6294C15.4796 16.7858 15.2975 16.9242 15.0717 17.0439C14.8461 17.1639 14.627 17.2605 14.4151 17.3342C14.203 17.4083 13.9472 17.4724 13.6479 17.5279C13.3479 17.5833 13.0854 17.6222 12.8594 17.6454C12.6336 17.6685 12.3642 17.6869 12.0506 17.7008C11.7374 17.7144 11.493 17.7214 11.3179 17.7214C11.1428 17.7214 10.9215 17.7189 10.6542 17.7144C10.3867 17.7101 10.2164 17.7077 10.1426 17.7077V13.0344C10.2162 13.0344 10.4352 13.0299 10.7993 13.0205C11.1635 13.0112 11.4606 13.0069 11.6911 13.0069C11.9215 13.0069 12.2396 13.0205 12.6453 13.0483C13.0506 13.0758 13.3917 13.1171 13.6685 13.1724C13.9449 13.2278 14.2465 13.3129 14.574 13.4283C14.9011 13.5434 15.1662 13.684 15.3691 13.8499C15.5719 14.0161 15.7423 14.2277 15.8805 14.4859C16.0191 14.7439 16.0882 15.0389 16.0882 15.3708C16.0881 15.6292 16.0444 15.8639 15.9567 16.076Z" fill="#F6543E"/>
</g>
<defs>
<clipPath id="clip0_13_747">
<rect width="23.0059" height="23.0059" fill="white" transform="translate(0.508911 0.757385)"/>
</clipPath>
</defs>
</svg>
