<svg width="18" height="18" viewBox="0 0 18 18" fill="none" xmlns="http://www.w3.org/2000/svg">
<g clip-path="url(#clip0_13_626)">
<path d="M9.00035 0.508995C4.30607 0.508995 0.500488 4.31463 0.500488 9.00891C0.500488 13.703 4.30601 17.509 9.00023 17.509C13.6945 17.509 17.5004 13.703 17.5004 9.00891C17.5004 4.31463 13.6945 0.508995 9.00035 0.508995ZM12.2067 12.2486C11.8674 12.5877 11.3176 12.5877 10.9785 12.2486L9.04438 10.3144L7.02219 12.3366C6.68299 12.6757 6.13316 12.6757 5.79412 12.3366C5.45475 11.9971 5.45475 11.4475 5.79412 11.1081L7.81614 9.08609L5.93346 7.20353C5.59437 6.86404 5.59437 6.31438 5.93346 5.97512C6.27267 5.63592 6.82261 5.63592 7.16187 5.97512L9.04443 7.85768L10.8391 6.0629C11.1783 5.72381 11.7284 5.72369 12.0673 6.0629C12.4067 6.40238 12.4067 6.95238 12.0673 7.2913L10.2728 9.08598L12.2069 11.0201C12.5459 11.3591 12.5461 11.9093 12.2067 12.2486Z" fill="#797979"/>
</g>
<defs>
<clipPath id="clip0_13_626">
<rect width="17" height="17" fill="white" transform="translate(0.500366 0.508995)"/>
</clipPath>
</defs>
</svg>
