<svg width="390" height="365" viewBox="0 0 390 365" fill="none" xmlns="http://www.w3.org/2000/svg">
<g clip-path="url(#clip0_24_15)">
<path fill-rule="evenodd" clip-rule="evenodd" d="M135.318 274.373C132.53 272.911 131.039 271.824 128.872 269.495C127.715 270.537 126.91 271.631 126.605 273.051C127.906 274.755 129.945 276.462 132.887 278.487C133.166 276.214 133.676 275.1 135.318 274.373Z" fill="#FFC700"/>
<path fill-rule="evenodd" clip-rule="evenodd" d="M136.138 302.472C133.114 301.601 131.434 300.835 128.843 298.988C127.919 300.242 127.351 301.475 127.337 302.928C128.954 304.336 131.294 305.599 134.583 306.99C134.4 304.708 134.675 303.515 136.138 302.472Z" fill="#61BA47"/>
<path fill-rule="evenodd" clip-rule="evenodd" d="M89.3118 103.74C87.0705 104.148 85.9752 105.393 84.3883 107.321C84.7873 109.705 84.8322 111.551 85.4451 113.471C88.0312 113.669 89.7102 114.375 91.9879 116.713C91.9161 111.395 91.1176 108.453 89.3118 103.74Z" fill="#007AFF"/>
<path fill-rule="evenodd" clip-rule="evenodd" d="M396.845 357.425C394.046 355.984 392.547 354.908 390.363 352.594C389.214 353.645 388.417 354.744 388.122 356.166C389.436 357.861 391.487 359.554 394.444 361.556C394.707 359.282 395.208 358.164 396.845 357.425Z" fill="#F74F9E"/>
<path fill-rule="evenodd" clip-rule="evenodd" d="M389.767 217.53C391.893 218.347 393.477 217.854 395.835 217.033C396.734 214.789 397.656 213.189 398.131 211.231C396.026 209.717 394.959 208.24 394.23 205.059C391.525 209.637 390.677 212.565 389.767 217.53Z" fill="#FF5257"/>
<path fill-rule="evenodd" clip-rule="evenodd" d="M193.379 237.834C192.305 240.793 191.429 242.417 189.412 244.878C190.6 245.884 191.793 246.534 193.241 246.646C194.754 245.127 196.172 242.878 197.782 239.689C195.493 239.718 194.32 239.364 193.379 237.834Z" fill="#007AFF"/>
<path fill-rule="evenodd" clip-rule="evenodd" d="M223.888 282.121C226.154 282.358 227.555 281.471 229.619 280.066C229.905 277.665 230.38 275.881 230.331 273.866C227.904 272.951 226.49 271.802 224.96 268.919C223.537 274.043 223.478 277.091 223.888 282.121Z" fill="#A550A7"/>
<path fill-rule="evenodd" clip-rule="evenodd" d="M250.577 170.076C251.098 167.858 250.394 166.356 249.26 164.132C246.915 163.545 245.204 162.849 243.2 162.644C241.986 164.936 240.668 166.194 237.615 167.348C242.519 169.406 245.535 169.849 250.577 170.076Z" fill="#61BA47"/>
<path fill-rule="evenodd" clip-rule="evenodd" d="M273.945 322.088C277.087 322.273 278.894 322.65 281.828 323.881C282.453 322.455 282.736 321.127 282.43 319.707C280.543 318.689 277.982 317.972 274.467 317.339C275.148 319.525 275.142 320.749 273.945 322.088Z" fill="#007AFF"/>
<path fill-rule="evenodd" clip-rule="evenodd" d="M356.25 364.79C353.104 364.692 351.287 364.366 348.32 363.216C347.735 364.659 347.488 365.994 347.833 367.405C349.748 368.37 352.328 369.016 355.859 369.552C355.118 367.386 355.09 366.162 356.25 364.79Z" fill="#FFC700"/>
<path fill-rule="evenodd" clip-rule="evenodd" d="M384.736 223.721C386.677 224.913 388.324 224.717 390.792 224.342C392.087 222.3 393.286 220.895 394.11 219.057C392.317 217.183 391.538 215.537 391.403 212.275C387.907 216.283 386.537 219.006 384.736 223.721Z" fill="#61BA47"/>
<path fill-rule="evenodd" clip-rule="evenodd" d="M16.43 -7.63296C15.832 -4.54241 15.2199 -2.80136 13.6119 -0.0556642C14.9431 0.752358 16.2223 1.20846 17.6699 1.09286C18.9278 -0.643975 19.9767 -3.08731 21.0691 -6.488C18.8123 -6.10163 17.599 -6.26911 16.43 -7.63296Z" fill="#A550A7"/>
<path fill-rule="evenodd" clip-rule="evenodd" d="M92.2335 209.509C90.893 206.661 90.3601 204.894 90.0386 201.728C88.4871 201.861 87.1851 202.248 86.0845 203.195C86.0934 205.34 86.688 207.931 87.8123 211.322C89.4065 209.678 90.485 209.098 92.2335 209.509Z" fill="#007AFF"/>
<path fill-rule="evenodd" clip-rule="evenodd" d="M381.714 56.1316C379.608 53.7915 378.588 52.2537 377.366 49.3156C375.919 49.8907 374.784 50.6365 374.004 51.8612C374.631 53.9119 375.949 56.2215 378.004 59.143C379.056 57.1094 379.921 56.2422 381.714 56.1316Z" fill="#61BA47"/>
<path fill-rule="evenodd" clip-rule="evenodd" d="M386.567 297.714C383.915 296.018 382.522 294.807 380.563 292.3C379.321 293.239 378.425 294.26 377.999 295.648C379.149 297.458 381.034 299.334 383.792 301.603C384.265 299.363 384.868 298.297 386.567 297.714Z" fill="#007AFF"/>
<path fill-rule="evenodd" clip-rule="evenodd" d="M335.364 40.205C333.348 37.7877 332.386 36.2127 331.275 33.2309C329.808 33.7513 328.645 34.4541 327.82 35.6486C328.37 37.7214 329.6 40.0788 331.544 43.0753C332.671 41.0825 333.568 40.2484 335.364 40.205Z" fill="#FF5257"/>
<path fill-rule="evenodd" clip-rule="evenodd" d="M177.94 233.747C176.779 231.787 175.231 231.192 172.873 230.372C170.775 231.574 169.059 232.257 167.471 233.498C168.183 235.992 168.104 237.811 166.702 240.759C171.664 238.846 174.146 237.076 177.94 233.747Z" fill="#F74F9E"/>
<path fill-rule="evenodd" clip-rule="evenodd" d="M268.493 312.064C269.309 314.191 270.736 315.036 272.924 316.239C275.193 315.405 276.999 315.018 278.772 314.06C278.487 311.482 278.87 309.701 280.745 307.03C275.533 308.086 272.79 309.416 268.493 312.064Z" fill="#007AFF"/>
<path fill-rule="evenodd" clip-rule="evenodd" d="M186.091 56.6331C183.872 56.1189 182.372 56.8274 180.151 57.9673C179.571 60.3145 178.88 62.0271 178.681 64.0323C180.977 65.2396 182.238 66.5536 183.402 69.6034C185.445 64.6935 185.879 61.6761 186.091 56.6331Z" fill="#F74F9E"/>
<path fill-rule="evenodd" clip-rule="evenodd" d="M200.522 119.407C199.318 116.498 198.87 114.708 198.699 111.531C197.142 111.59 195.824 111.914 194.679 112.808C194.587 114.951 195.058 117.568 196.02 121.007C197.69 119.441 198.795 118.913 200.522 119.407Z" fill="#007AFF"/>
<path fill-rule="evenodd" clip-rule="evenodd" d="M171.149 153.513C171.832 155.686 173.203 156.619 175.312 157.954C177.629 157.263 179.455 156.99 181.284 156.143C181.16 153.553 181.652 151.799 183.69 149.249C178.422 149.98 175.602 151.137 171.149 153.513Z" fill="#61BA47"/>
<path fill-rule="evenodd" clip-rule="evenodd" d="M253.861 224.254C250.891 223.212 249.258 222.352 246.776 220.361C245.783 221.56 245.145 222.759 245.048 224.208C246.583 225.706 248.847 227.1 252.052 228.676C251.999 226.387 252.342 225.211 253.861 224.254Z" fill="#61BA47"/>
<path fill-rule="evenodd" clip-rule="evenodd" d="M381.878 199.249C384.924 198.458 386.759 198.26 389.93 198.529C390.086 196.979 389.946 195.628 389.218 194.372C387.109 193.984 384.452 194.09 380.913 194.569C382.234 196.44 382.605 197.607 381.878 199.249Z" fill="#FF5257"/>
<path fill-rule="evenodd" clip-rule="evenodd" d="M22.7813 134.921C24.7644 137.366 25.7048 138.954 26.7745 141.951C28.2492 141.45 29.4208 140.763 30.2627 139.58C29.7408 137.5 28.5432 135.126 26.6402 132.103C25.4856 134.081 24.5774 134.902 22.7813 134.921Z" fill="#A550A7"/>
<path fill-rule="evenodd" clip-rule="evenodd" d="M371.369 58.5981C368.463 59.8095 366.674 60.2626 363.497 60.4418C363.561 61.9978 363.888 63.3157 364.785 64.4577C366.928 64.545 369.544 64.0672 372.981 63.0961C371.411 61.4298 370.879 60.3264 371.369 58.5981Z" fill="#FF5257"/>
<path fill-rule="evenodd" clip-rule="evenodd" d="M223.581 110.204C224.264 112.377 225.636 113.309 227.746 114.644C230.062 113.952 231.888 113.678 233.717 112.832C233.592 110.241 234.084 108.488 236.121 105.937C230.853 106.669 228.033 107.827 223.581 110.204Z" fill="#F74F9E"/>
<path fill-rule="evenodd" clip-rule="evenodd" d="M96.9044 166.552C95.4854 164.77 93.8706 164.393 91.422 163.905C89.509 165.384 87.903 166.296 86.501 167.743C87.5488 170.115 87.7199 171.929 86.7356 175.041C91.3881 172.465 93.6037 170.371 96.9044 166.552Z" fill="#61BA47"/>
<path fill-rule="evenodd" clip-rule="evenodd" d="M252.367 176.991C254.176 178.375 255.834 178.348 258.328 178.226C259.824 176.327 261.161 175.052 262.169 173.308C260.576 171.261 259.969 169.544 260.168 166.286C256.281 169.915 254.64 172.485 252.367 176.991Z" fill="#FFC700"/>
<path fill-rule="evenodd" clip-rule="evenodd" d="M368.091 148.829C366.558 147.144 364.921 146.875 362.446 146.549C360.635 148.151 359.092 149.166 357.789 150.703C358.991 153.001 359.281 154.799 358.504 157.97C362.977 155.093 365.049 152.857 368.091 148.829Z" fill="#F74F9E"/>
<path fill-rule="evenodd" clip-rule="evenodd" d="M87.6536 177.34C89.5996 178.525 91.2455 178.323 93.7123 177.937C94.9991 175.89 96.1927 174.481 97.0106 172.64C95.2099 170.773 94.4247 169.13 94.277 165.869C90.7962 169.889 89.4372 172.618 87.6536 177.34Z" fill="#FF5257"/>
<path fill-rule="evenodd" clip-rule="evenodd" d="M133.541 244.322C133.569 246.6 134.614 247.888 136.249 249.775C138.667 249.779 140.495 250.043 142.49 249.759C143.116 247.242 144.093 245.705 146.778 243.849C141.523 243.033 138.489 243.329 133.541 244.322Z" fill="#F74F9E"/>
<path fill-rule="evenodd" clip-rule="evenodd" d="M172.492 227.15C170.285 227.715 169.281 229.034 167.834 231.069C168.4 233.42 168.575 235.258 169.322 237.13C171.916 237.144 173.64 237.73 176.077 239.901C175.63 234.602 174.626 231.724 172.492 227.15Z" fill="#A550A7"/>
<path fill-rule="evenodd" clip-rule="evenodd" d="M159.523 32.7884C159.782 29.6512 160.201 27.854 161.501 24.95C160.09 24.2912 158.769 23.9767 157.343 24.2488C156.281 26.1119 155.503 28.6547 154.787 32.1538C156.988 31.5248 158.212 31.5595 159.523 32.7884Z" fill="#007AFF"/>
<path fill-rule="evenodd" clip-rule="evenodd" d="M225.654 67.6382C223.8 70.1818 222.506 71.4979 219.884 73.3002C220.746 74.5972 221.71 75.5536 223.069 76.064C224.946 75.0263 226.934 73.2601 229.367 70.6457C227.16 70.0366 226.133 69.3695 225.654 67.6382Z" fill="#61BA47"/>
<path fill-rule="evenodd" clip-rule="evenodd" d="M263.944 18.916C263.515 21.1534 264.28 22.6246 265.503 24.801C267.871 25.2909 269.608 25.9165 271.62 26.0389C272.739 23.6991 274.004 22.3888 277.007 21.1103C272.023 19.2551 268.991 18.936 263.944 18.916Z" fill="#A550A7"/>
<path fill-rule="evenodd" clip-rule="evenodd" d="M185.447 135.1C188.49 134.293 190.324 134.086 193.495 134.339C193.644 132.789 193.498 131.439 192.763 130.186C190.652 129.809 187.996 129.928 184.459 130.425C185.789 132.288 186.166 133.454 185.447 135.1Z" fill="#F74F9E"/>
<path fill-rule="evenodd" clip-rule="evenodd" d="M205.699 86.6599C207.893 87.2738 209.422 86.6338 211.693 85.5954C212.378 83.2768 213.146 81.5971 213.435 79.603C211.196 78.2932 209.996 76.9235 208.971 73.8243C206.708 78.6369 206.138 81.6317 205.699 86.6599Z" fill="#FFC700"/>
<path fill-rule="evenodd" clip-rule="evenodd" d="M110.303 137.143C112.246 135.953 112.819 134.397 113.603 132.027C112.371 129.947 111.663 128.241 110.399 126.672C107.916 127.42 106.095 127.368 103.127 126.009C105.113 130.942 106.919 133.398 110.303 137.143Z" fill="#FFC700"/>
<path fill-rule="evenodd" clip-rule="evenodd" d="M154.821 227.986C156.606 225.392 157.863 224.042 160.435 222.169C159.539 220.896 158.549 219.966 157.176 219.493C155.328 220.581 153.389 222.401 151.028 225.08C153.25 225.629 154.295 226.268 154.821 227.986Z" fill="#FF5257"/>
<path fill-rule="evenodd" clip-rule="evenodd" d="M220.419 346.889C221.061 344.703 220.44 343.165 219.431 340.882C217.121 340.167 215.452 339.378 213.461 339.063C212.123 341.285 210.738 342.468 207.626 343.453C212.409 345.777 215.397 346.385 220.419 346.889Z" fill="#FFC700"/>
<path fill-rule="evenodd" clip-rule="evenodd" d="M131.185 84.1203C129.553 86.8122 128.375 88.2332 125.916 90.2515C126.884 91.4708 127.926 92.3419 129.324 92.7351C131.106 91.5418 132.937 89.6134 135.14 86.8019C132.889 86.3823 131.809 85.8048 131.185 84.1203Z" fill="#FF5257"/>
<path fill-rule="evenodd" clip-rule="evenodd" d="M370.253 131.002C372.506 131.341 373.945 130.517 376.07 129.206C376.464 126.821 377.018 125.059 377.059 123.045C374.676 122.021 373.316 120.81 371.916 117.861C370.265 122.916 370.069 125.958 370.253 131.002Z" fill="#FFC700"/>
<path fill-rule="evenodd" clip-rule="evenodd" d="M285.782 188.142C286.67 185.122 287.444 183.447 289.304 180.865C288.055 179.935 286.824 179.36 285.372 179.339C283.956 180.949 282.681 183.282 281.272 186.564C283.556 186.393 284.748 186.674 285.782 188.142Z" fill="#FF5257"/>
<path fill-rule="evenodd" clip-rule="evenodd" d="M308.285 266.808C308.4 269.084 309.493 270.331 311.199 272.153C313.615 272.066 315.452 272.26 317.435 271.9C317.965 269.361 318.882 267.788 321.495 265.831C316.212 265.215 313.192 265.627 308.285 266.808Z" fill="#FF5257"/>
<path fill-rule="evenodd" clip-rule="evenodd" d="M323.612 141.261C322.133 139.528 320.506 139.207 318.042 138.804C316.181 140.348 314.608 141.314 313.256 142.809C314.385 145.144 314.619 146.951 313.742 150.095C318.303 147.36 320.445 145.191 323.612 141.261Z" fill="#A550A7"/>
<path fill-rule="evenodd" clip-rule="evenodd" d="M105.935 185.739C103.535 183.702 102.317 182.315 100.713 179.567C99.3558 180.331 98.3311 181.223 97.722 182.541C98.6189 184.489 100.234 186.601 102.662 189.221C103.432 187.064 104.173 186.089 105.935 185.739Z" fill="#FFC700"/>
<path fill-rule="evenodd" clip-rule="evenodd" d="M177.511 124.505C179.429 123.275 179.968 121.707 180.702 119.321C179.426 117.267 178.683 115.577 177.386 114.035C174.919 114.835 173.097 114.821 170.102 113.525C172.191 118.416 174.048 120.833 177.511 124.505Z" fill="#FFC700"/>
<path fill-rule="evenodd" clip-rule="evenodd" d="M379.779 -11.8892C378.083 -10.3677 377.802 -8.73342 377.459 -6.26033C379.048 -4.43784 380.053 -2.88838 381.58 -1.57404C383.887 -2.75983 385.687 -3.03755 388.852 -2.23834C386.006 -6.73099 383.785 -8.81935 379.779 -11.8892Z" fill="#007AFF"/>
<path fill-rule="evenodd" clip-rule="evenodd" d="M129.157 2.55401C129.504 4.80564 130.718 5.93443 132.602 7.57334C134.996 7.23948 136.843 7.245 138.779 6.68467C139.047 4.10488 139.798 2.44575 142.198 0.232666C136.88 0.159462 133.917 0.877373 129.157 2.55401Z" fill="#F74F9E"/>
<path fill-rule="evenodd" clip-rule="evenodd" d="M378.83 91.3003C375.692 91.0532 373.893 90.6406 370.984 89.3511C370.331 90.7647 370.021 92.087 370.299 93.5124C372.166 94.5674 374.712 95.3351 378.214 96.0386C377.576 93.8395 377.606 92.6151 378.83 91.3003Z" fill="#61BA47"/>
<path fill-rule="evenodd" clip-rule="evenodd" d="M11.2914 327.716C12.3476 330.681 12.7056 332.492 12.7167 335.674C14.2738 335.693 15.6073 335.435 16.7951 334.6C16.9954 332.464 16.6565 329.827 15.8683 326.343C14.1214 327.823 12.9914 328.296 11.2914 327.716Z" fill="#007AFF"/>
<path fill-rule="evenodd" clip-rule="evenodd" d="M178.861 122.85C180.381 124.547 182.015 124.829 184.488 125.174C186.312 123.587 187.862 122.584 189.178 121.058C187.994 118.75 187.718 116.949 188.52 113.785C184.025 116.627 181.934 118.846 178.861 122.85Z" fill="#61BA47"/>
<path fill-rule="evenodd" clip-rule="evenodd" d="M67.1986 309.815C64.9654 309.364 63.487 310.115 61.2993 311.318C60.7872 313.681 60.1453 315.413 60.0041 317.423C62.3333 318.564 63.6317 319.841 64.882 322.857C66.7838 317.89 67.1313 314.862 67.1986 309.815Z" fill="#FFC700"/>
<path fill-rule="evenodd" clip-rule="evenodd" d="M17.9256 334.132C15.0322 335.372 13.2477 335.842 10.0727 336.053C10.1511 337.608 10.4916 338.923 11.3997 340.056C13.5433 340.122 16.1541 339.619 19.5818 338.614C17.9954 336.963 17.453 335.865 17.9256 334.132Z" fill="#FFC700"/>
<path fill-rule="evenodd" clip-rule="evenodd" d="M2.5774 320.206C0.924984 317.526 0.196643 315.831 -0.478962 312.721C-2.00572 313.028 -3.25592 313.558 -4.24295 314.624C-3.99278 316.753 -3.11038 319.262 -1.61178 322.504C-0.212561 320.692 0.793721 319.993 2.5774 320.206Z" fill="#F74F9E"/>
<path fill-rule="evenodd" clip-rule="evenodd" d="M12.1259 96.2052C11.2515 98.309 11.7022 99.9048 12.4589 102.284C14.6778 103.244 16.2525 104.209 18.1971 104.737C19.7675 102.673 21.2722 101.646 24.4724 101.003C19.9683 98.1759 17.0643 97.2486 12.1259 96.2052Z" fill="#FF5257"/>
<path fill-rule="evenodd" clip-rule="evenodd" d="M221.235 235.307C223.981 236.846 225.441 237.974 227.543 240.364C228.728 239.354 229.563 238.283 229.908 236.872C228.655 235.132 226.665 233.369 223.78 231.263C223.437 233.527 222.897 234.626 221.235 235.307Z" fill="#61BA47"/>
<path fill-rule="evenodd" clip-rule="evenodd" d="M301.907 206.873C304.283 208.938 305.484 210.34 307.056 213.106C308.422 212.358 309.457 211.479 310.082 210.168C309.208 208.21 307.618 206.079 305.221 203.431C304.426 205.578 303.673 206.544 301.907 206.873Z" fill="#A550A7"/>
<path fill-rule="evenodd" clip-rule="evenodd" d="M365.272 12.3777C367.225 13.5507 368.87 13.3386 371.335 12.9385C372.609 10.884 373.794 9.46765 374.601 7.62128C372.789 5.76547 371.994 4.12672 371.827 0.866882C368.37 4.90838 367.028 7.64531 365.272 12.3777Z" fill="#FF5257"/>
<path fill-rule="evenodd" clip-rule="evenodd" d="M267.185 230.848C265.915 228.956 264.337 228.449 261.936 227.763C259.909 229.081 258.234 229.859 256.719 231.187C257.57 233.637 257.593 235.459 256.358 238.48C261.205 236.292 263.584 234.385 267.185 230.848Z" fill="#FF5257"/>
<path fill-rule="evenodd" clip-rule="evenodd" d="M166.732 284.188C169.838 284.702 171.595 285.266 174.384 286.798C175.155 285.445 175.576 284.154 175.421 282.71C173.65 281.5 171.179 280.519 167.749 279.52C168.197 281.765 168.063 282.983 166.732 284.188Z" fill="#A550A7"/>
<path fill-rule="evenodd" clip-rule="evenodd" d="M211.659 305.515C213.479 302.946 214.755 301.613 217.352 299.775C216.472 298.49 215.495 297.547 214.129 297.055C212.267 298.118 210.303 299.911 207.906 302.559C210.121 303.138 211.157 303.791 211.659 305.515Z" fill="#FF5257"/>
<path fill-rule="evenodd" clip-rule="evenodd" d="M175.276 10.3832C177.169 7.86834 178.483 6.57232 181.132 4.81043C180.291 3.5003 179.341 2.52924 177.99 1.99805C176.097 3.00693 174.083 4.74243 171.609 7.31916C173.807 7.96203 174.824 8.64481 175.276 10.3832Z" fill="#FFC700"/>
<path fill-rule="evenodd" clip-rule="evenodd" d="M147.532 99.2284C149.71 99.8982 151.255 99.2974 153.552 98.3174C154.296 96.0171 155.106 94.3576 155.446 92.3715C153.242 91.005 152.077 89.605 151.132 86.4807C148.746 91.2338 148.1 94.213 147.532 99.2284Z" fill="#007AFF"/>
<path fill-rule="evenodd" clip-rule="evenodd" d="M374.142 49.2136C377.266 49.6054 379.043 50.1007 381.89 51.5232C382.608 50.1414 382.978 48.8348 382.767 47.3981C380.95 46.258 378.443 45.3734 374.977 44.5088C375.512 46.735 375.426 47.9568 374.142 49.2136Z" fill="#FFC700"/>
<path fill-rule="evenodd" clip-rule="evenodd" d="M363.065 224.932C360.81 222.735 359.691 221.268 358.279 218.417C356.873 219.086 355.789 219.905 355.091 221.178C355.852 223.183 357.319 225.401 359.561 228.181C360.477 226.082 361.283 225.16 363.065 224.932Z" fill="#FF5257"/>
<path fill-rule="evenodd" clip-rule="evenodd" d="M160.781 116.216C159.94 113.183 159.713 111.351 159.93 108.177C158.378 108.046 157.03 108.207 155.785 108.955C155.432 111.071 155.581 113.725 156.117 117.257C157.966 115.906 159.127 115.516 160.781 116.216Z" fill="#007AFF"/>
<path fill-rule="evenodd" clip-rule="evenodd" d="M174.127 340.287C173.971 343.431 173.61 345.241 172.406 348.186C173.837 348.798 175.168 349.069 176.585 348.75C177.585 346.853 178.279 344.287 178.881 340.766C176.701 341.467 175.476 341.472 174.127 340.287Z" fill="#A550A7"/>
<path fill-rule="evenodd" clip-rule="evenodd" d="M43.3718 377.376C45.0196 375.802 45.2499 374.16 45.5158 371.678C43.8716 369.905 42.8191 368.388 41.2519 367.121C38.9829 368.378 37.1923 368.711 34.0043 368.01C36.9877 372.413 39.2721 374.431 43.3718 377.376Z" fill="#F74F9E"/>
<path fill-rule="evenodd" clip-rule="evenodd" d="M285.375 128.889C284.519 131.918 283.762 133.601 281.928 136.202C283.186 137.119 284.422 137.682 285.875 137.688C287.275 136.064 288.526 133.718 289.901 130.421C287.62 130.616 286.425 130.347 285.375 128.889Z" fill="#FF5257"/>
<path fill-rule="evenodd" clip-rule="evenodd" d="M134.047 273.69C134.094 270.542 134.392 268.721 135.494 265.736C134.041 265.174 132.702 264.949 131.297 265.316C130.363 267.247 129.758 269.836 129.279 273.376C131.433 272.6 132.657 272.552 134.047 273.69Z" fill="#FF5257"/>
<path fill-rule="evenodd" clip-rule="evenodd" d="M334.981 111.105C334.715 114.242 334.291 116.038 332.984 118.939C334.393 119.601 335.714 119.919 337.141 119.65C338.207 117.789 338.991 115.248 339.716 111.751C337.513 112.375 336.288 112.337 334.981 111.105Z" fill="#A550A7"/>
<path fill-rule="evenodd" clip-rule="evenodd" d="M65.1801 28.8092C62.9388 29.2173 61.8434 30.4622 60.2563 32.3896C60.6551 34.7741 60.6997 36.6204 61.3125 38.54C63.8986 38.7379 65.5775 39.4441 67.855 41.7824C67.7837 36.4648 66.9855 33.5227 65.1801 28.8092Z" fill="#007AFF"/>
<path fill-rule="evenodd" clip-rule="evenodd" d="M246.147 91.4618C248.408 91.1838 249.573 90.0042 251.269 88.1718C251.009 85.7682 251.071 83.9224 250.57 81.9706C248 81.6236 246.364 80.8216 244.226 78.3557C243.99 83.6685 244.617 86.6518 246.147 91.4618Z" fill="#F74F9E"/>
<path fill-rule="evenodd" clip-rule="evenodd" d="M13.7256 72.3458C15.0813 69.5048 16.1114 67.9735 18.358 65.7202C17.2727 64.6035 16.1492 63.8405 14.7191 63.5885C13.0649 64.9533 11.4355 67.0545 9.52335 70.0714C11.8048 70.2647 12.937 70.7318 13.7256 72.3458Z" fill="#F74F9E"/>
<path fill-rule="evenodd" clip-rule="evenodd" d="M362.457 87.5956C360.179 87.5814 358.872 88.6019 356.956 90.2019C356.906 92.619 356.608 94.4416 356.854 96.4415C359.359 97.1151 360.878 98.12 362.683 100.84C363.598 95.601 363.358 92.5619 362.457 87.5956Z" fill="#FF5257"/>
<path fill-rule="evenodd" clip-rule="evenodd" d="M339.94 260.062C342.726 258.598 344.468 257.988 347.616 257.527C347.415 255.983 346.972 254.699 345.977 253.642C343.835 253.745 341.272 254.453 337.934 255.725C339.646 257.246 340.274 258.298 339.94 260.062Z" fill="#F74F9E"/>
<path fill-rule="evenodd" clip-rule="evenodd" d="M340.683 363.419C337.563 363.003 335.789 362.493 332.954 361.049C332.225 362.425 331.845 363.729 332.045 365.167C333.852 366.321 336.353 367.225 339.811 368.117C339.294 365.887 339.39 364.666 340.683 363.419Z" fill="#007AFF"/>
<path fill-rule="evenodd" clip-rule="evenodd" d="M233.566 134.056C235.241 131.391 236.442 129.989 238.934 128.011C237.985 126.776 236.957 125.888 235.566 125.472C233.765 126.636 231.904 128.535 229.655 131.31C231.899 131.766 232.969 132.361 233.566 134.056Z" fill="#61BA47"/>
<path fill-rule="evenodd" clip-rule="evenodd" d="M2.55145 228.868C1.92089 231.952 1.29046 233.687 -0.346457 236.415C0.976164 237.237 2.25049 237.707 3.69918 237.607C4.97541 235.883 6.04998 233.451 7.17814 230.062C4.91742 230.425 3.70596 230.244 2.55145 228.868Z" fill="#F74F9E"/>
<path fill-rule="evenodd" clip-rule="evenodd" d="M288.845 60.7348C288.996 58.4616 288.056 57.0957 286.573 55.0866C284.164 54.892 282.362 54.4852 280.351 54.6114C279.529 57.0713 278.434 58.5274 275.611 60.166C280.786 61.3933 283.834 61.3365 288.845 60.7348Z" fill="#A550A7"/>
<path fill-rule="evenodd" clip-rule="evenodd" d="M69.4732 67.0055C72.6201 66.9267 74.4519 67.1512 77.4786 68.1329C77.9823 66.6593 78.1534 65.3121 77.73 63.923C75.7638 63.0668 73.1524 62.5664 69.5965 62.2289C70.4579 64.3503 70.5546 65.5712 69.4732 67.0055Z" fill="#F74F9E"/>
<path fill-rule="evenodd" clip-rule="evenodd" d="M193.601 186.551C196.377 188.036 197.859 189.135 200.007 191.483C201.172 190.45 201.986 189.363 202.303 187.946C201.016 186.23 198.992 184.506 196.066 182.458C195.768 184.728 195.249 185.838 193.601 186.551Z" fill="#61BA47"/>
<path fill-rule="evenodd" clip-rule="evenodd" d="M309.101 317.199C308.128 315.139 306.643 314.402 304.371 313.366C302.171 314.366 300.398 314.886 298.702 315.973C299.178 318.522 298.929 320.327 297.257 323.13C302.376 321.69 305.013 320.159 309.101 317.199Z" fill="#61BA47"/>
<path fill-rule="evenodd" clip-rule="evenodd" d="M327.187 95.2496C326.399 92.2021 326.203 90.367 326.474 87.1967C324.925 87.0394 323.574 87.1776 322.317 87.9043C321.928 90.0132 322.031 92.6701 322.507 96.2102C324.378 94.8911 325.546 94.5207 327.187 95.2496Z" fill="#61BA47"/>
<path fill-rule="evenodd" clip-rule="evenodd" d="M120.889 63.9206C119.243 61.2375 118.518 59.5402 117.85 56.4292C116.322 56.7324 115.071 57.26 114.081 58.3228C114.327 60.4533 115.203 62.9636 116.694 66.2093C118.098 64.4002 119.106 63.7043 120.889 63.9206Z" fill="#A550A7"/>
<path fill-rule="evenodd" clip-rule="evenodd" d="M61.918 100.907C64.1712 101.243 65.6095 100.418 67.7334 99.1054C68.1248 96.7196 68.6779 94.9576 68.7168 92.943C66.3327 91.9217 64.9711 90.7118 63.5693 87.764C61.9221 92.8206 61.7289 95.863 61.918 100.907Z" fill="#FF5257"/>
<path fill-rule="evenodd" clip-rule="evenodd" d="M24.6468 155.439C22.1841 153.479 20.9242 152.13 19.2347 149.434C17.9023 150.24 16.9058 151.163 16.3382 152.499C17.2955 154.418 18.9758 156.479 21.4846 159.021C22.1867 156.842 22.8968 155.844 24.6468 155.439Z" fill="#A550A7"/>
<path fill-rule="evenodd" clip-rule="evenodd" d="M125.836 224.541C125.911 222.264 124.926 220.93 123.378 218.971C120.963 218.856 119.149 218.51 117.144 218.702C116.403 221.188 115.358 222.68 112.591 224.411C117.803 225.466 120.847 225.308 125.836 224.541Z" fill="#FFC700"/>
<path fill-rule="evenodd" clip-rule="evenodd" d="M106.648 197.802C108.883 197.358 109.958 196.096 111.515 194.144C111.078 191.766 111.004 189.92 110.361 188.011C107.772 187.854 106.082 187.174 103.768 184.873C103.924 190.188 104.768 193.117 106.648 197.802Z" fill="#A550A7"/>
<path fill-rule="evenodd" clip-rule="evenodd" d="M232.878 269.478C234.721 266.926 236.009 265.604 238.624 263.79C237.756 262.497 236.787 261.545 235.426 261.041C233.554 262.087 231.574 263.862 229.152 266.487C231.362 267.086 232.392 267.749 232.878 269.478Z" fill="#007AFF"/>
<path fill-rule="evenodd" clip-rule="evenodd" d="M99.4487 202.938C99.05 205.181 99.8352 206.641 101.088 208.801C103.463 209.258 105.209 209.86 107.221 209.954C108.308 207.599 109.555 206.272 112.541 204.952C107.532 203.166 104.496 202.888 99.4487 202.938Z" fill="#FF5257"/>
<path fill-rule="evenodd" clip-rule="evenodd" d="M101.915 161.453C104.654 159.902 106.376 159.238 109.508 158.679C109.259 157.142 108.776 155.873 107.749 154.847C105.611 155.017 103.071 155.804 99.775 157.18C101.534 158.647 102.194 159.678 101.915 161.453Z" fill="#61BA47"/>
<path fill-rule="evenodd" clip-rule="evenodd" d="M302.379 194.967C300.19 195.596 299.224 196.944 297.836 199.02C298.471 201.353 298.699 203.185 299.5 205.034C302.093 204.974 303.834 205.509 306.333 207.609C305.732 202.325 304.645 199.477 302.379 194.967Z" fill="#61BA47"/>
<path fill-rule="evenodd" clip-rule="evenodd" d="M190.007 112.243C191.983 111.109 192.6 109.57 193.451 107.223C192.279 105.109 191.62 103.383 190.4 101.779C187.897 102.457 186.078 102.352 183.151 100.91C184.995 105.898 186.73 108.404 190.007 112.243Z" fill="#A550A7"/>
<path fill-rule="evenodd" clip-rule="evenodd" d="M249.735 41.3353C246.589 41.2151 244.775 40.8754 241.817 39.7045C241.221 41.1433 240.965 42.477 241.3 43.8901C243.208 44.8687 245.783 45.5331 249.31 46.0946C248.584 43.923 248.565 42.6984 249.735 41.3353Z" fill="#A550A7"/>
<path fill-rule="evenodd" clip-rule="evenodd" d="M202.116 203.162C200.018 204.048 199.219 205.502 198.09 207.729C198.998 209.969 199.443 211.761 200.459 213.502C203.026 213.132 204.819 213.456 207.551 215.243C206.324 210.068 204.904 207.37 202.116 203.162Z" fill="#F74F9E"/>
<path fill-rule="evenodd" clip-rule="evenodd" d="M131.469 254.063C134.005 252.198 135.635 251.334 138.68 250.408C138.25 248.911 137.619 247.708 136.477 246.811C134.375 247.234 131.947 248.317 128.837 250.075C130.757 251.322 131.535 252.268 131.469 254.063Z" fill="#F74F9E"/>
<path fill-rule="evenodd" clip-rule="evenodd" d="M4.85468 212.339C7.10501 212.694 8.55018 211.881 10.6849 210.586C11.0963 208.204 11.6642 206.447 11.72 204.432C9.34451 203.391 7.99314 202.17 6.61609 199.211C4.92659 204.253 4.7079 207.294 4.85468 212.339Z" fill="#FF5257"/>
<path fill-rule="evenodd" clip-rule="evenodd" d="M29.183 68.1041C26.8829 65.9549 25.7335 64.5111 24.2624 61.6897C22.8704 62.3878 21.8042 63.229 21.1327 64.5166C21.9353 66.5053 23.4475 68.6924 25.7475 71.4251C26.6197 69.3081 27.4064 68.3694 29.183 68.1041Z" fill="#FF5257"/>
<path fill-rule="evenodd" clip-rule="evenodd" d="M118.948 100.988C119.865 104 120.137 105.825 119.999 109.004C121.554 109.096 122.898 108.901 124.123 108.122C124.424 105.999 124.209 103.349 123.585 99.8316C121.77 101.228 120.619 101.647 118.948 100.988Z" fill="#007AFF"/>
<path fill-rule="evenodd" clip-rule="evenodd" d="M27.2667 124.088C25.2604 123.008 23.6277 123.298 21.1849 123.814C20.009 125.927 18.892 127.397 18.1734 129.28C20.071 131.048 20.9426 132.647 21.2638 135.896C24.5255 131.695 25.7372 128.898 27.2667 124.088Z" fill="#007AFF"/>
<path fill-rule="evenodd" clip-rule="evenodd" d="M294.869 306.428C292.197 308.092 290.504 308.828 287.398 309.517C287.711 311.042 288.247 312.29 289.316 313.272C291.445 313.013 293.949 312.12 297.185 310.607C295.367 309.216 294.664 308.213 294.869 306.428Z" fill="#007AFF"/>
</g>
<defs>
<clipPath id="clip0_24_15">
<rect width="473.148" height="365" fill="white" transform="translate(-41)"/>
</clipPath>
</defs>
</svg>
