<svg width="390" height="370" viewBox="0 0 390 370" fill="none" xmlns="http://www.w3.org/2000/svg">
<g filter="url(#filter0_f_45_157)">
<ellipse cx="225.5" cy="94" rx="478.5" ry="41" fill="url(#paint0_linear_45_157)"/>
</g>
<g opacity="0.31" filter="url(#filter1_f_45_157)">
<path fill-rule="evenodd" clip-rule="evenodd" d="M30.8625 77.9941C30.8095 78.0793 29.3411 79.8295 27.5995 81.8835C25.8579 83.9374 24.4166 85.646 24.3967 85.6802C24.3708 85.7248 25.0409 86.3095 26.7465 87.7304L29.1327 89.7183L32.0245 88.5863C34.1021 87.7729 34.9122 87.4342 34.9016 87.3831C34.8466 87.1192 31.0835 77.8594 31.0275 77.8503C30.9898 77.8442 30.9155 77.9089 30.8625 77.9941ZM24.2209 86.8028C24.2944 86.9932 28.2477 95.0332 28.2692 95.036C28.3048 95.0407 34.7443 88.4889 34.7273 88.4654C34.7113 88.4432 29.3471 90.5321 29.1185 90.6496L28.9783 90.7216L26.6862 88.8135C25.4256 87.7641 24.348 86.8638 24.2917 86.8131C24.1983 86.729 24.1921 86.728 24.2209 86.8028Z" fill="#6374C4"/>
</g>
<g opacity="0.31" filter="url(#filter2_f_45_157)">
<path fill-rule="evenodd" clip-rule="evenodd" d="M59.8625 183.994C59.8095 184.079 58.3411 185.83 56.5995 187.884C54.8579 189.937 53.4166 191.646 53.3967 191.68C53.3708 191.725 54.0409 192.309 55.7465 193.73L58.1327 195.718L61.0245 194.586C63.1021 193.773 63.9122 193.434 63.9016 193.383C63.8466 193.119 60.0835 183.859 60.0275 183.85C59.9898 183.844 59.9155 183.909 59.8625 183.994ZM53.2209 192.803C53.2944 192.993 57.2477 201.033 57.2692 201.036C57.3048 201.041 63.7443 194.489 63.7273 194.465C63.7113 194.443 58.3471 196.532 58.1185 196.65L57.9783 196.722L55.6862 194.814C54.4256 193.764 53.348 192.864 53.2917 192.813C53.1983 192.729 53.1921 192.728 53.2209 192.803Z" fill="#6374C4"/>
</g>
<path opacity="0.31" fill-rule="evenodd" clip-rule="evenodd" d="M42.6815 114.892C42.6601 115.022 41.7591 117.897 40.6792 121.281C39.5994 124.664 38.7102 127.474 38.7033 127.526C38.6943 127.594 39.8065 127.966 42.6032 128.832L46.5159 130.043L49.4633 127.2C51.5808 125.157 52.3956 124.334 52.3568 124.277C52.1561 123.984 42.8824 114.616 42.8096 114.633C42.7605 114.645 42.7029 114.761 42.6815 114.892ZM39.058 128.982C39.244 129.177 48.1312 136.963 48.1589 136.956C48.2046 136.943 52.7255 125.703 52.6929 125.683C52.6622 125.664 47.1893 130.926 46.9704 131.184L46.8362 131.343L43.0786 130.181C41.0119 129.542 39.2438 128.992 39.1495 128.959C38.9932 128.904 38.985 128.906 39.058 128.982Z" fill="#6374C4"/>
<path opacity="0.31" fill-rule="evenodd" clip-rule="evenodd" d="M323.681 83.8917C323.66 84.0223 322.759 86.8973 321.679 90.2807C320.599 93.664 319.71 96.4745 319.703 96.5263C319.694 96.5937 320.806 96.9661 323.603 97.832L327.516 99.0433L330.463 96.1997C332.581 94.1568 333.396 93.3338 333.357 93.2771C333.156 92.9835 323.882 83.6157 323.81 83.633C323.761 83.6446 323.703 83.761 323.681 83.8917ZM320.058 97.9822C320.244 98.1768 329.131 105.963 329.159 105.956C329.205 105.943 333.726 94.7032 333.693 94.6831C333.662 94.6642 328.189 99.9256 327.97 100.184L327.836 100.343L324.079 99.1813C322.012 98.5423 320.244 97.9921 320.149 97.9589C319.993 97.9038 319.985 97.9058 320.058 97.9822Z" fill="#6374C4"/>
<path opacity="0.31" fill-rule="evenodd" clip-rule="evenodd" d="M85.3585 75.219C85.2669 75.3144 82.8944 77.1716 80.0864 79.346C77.2784 81.5204 74.9523 83.3311 74.9172 83.3699C74.8715 83.4203 75.5765 84.3577 77.3891 86.6569L79.9249 89.8733L83.9651 89.2025C86.8677 88.7205 88.0055 88.5047 88.0058 88.436C88.0069 88.0803 85.6805 75.1055 85.6108 75.0785C85.5637 75.0603 85.4502 75.1235 85.3585 75.219ZM74.3838 84.7703C74.4266 85.036 77.3314 96.489 77.3584 96.4986C77.4031 96.5143 87.5007 89.8197 87.4853 89.7847C87.4707 89.7517 79.9793 90.9819 79.6521 91.071L79.4516 91.1257L77.0154 88.0378C75.6755 86.3395 74.5311 84.8837 74.4723 84.8029C74.3748 84.6688 74.367 84.6659 74.3838 84.7703Z" fill="#6374C4"/>
<path opacity="0.31" fill-rule="evenodd" clip-rule="evenodd" d="M365.681 181.892C365.66 182.022 364.759 184.897 363.679 188.281C362.599 191.664 361.71 194.474 361.703 194.526C361.694 194.594 362.806 194.966 365.603 195.832L369.516 197.043L372.463 194.2C374.581 192.157 375.396 191.334 375.357 191.277C375.156 190.984 365.882 181.616 365.81 181.633C365.761 181.645 365.703 181.761 365.681 181.892ZM362.058 195.982C362.244 196.177 371.131 203.963 371.159 203.956C371.205 203.943 375.726 192.703 375.693 192.683C375.662 192.664 370.189 197.926 369.97 198.184L369.836 198.343L366.079 197.181C364.012 196.542 362.244 195.992 362.149 195.959C361.993 195.904 361.985 195.906 362.058 195.982Z" fill="#6374C4"/>
<path opacity="0.31" fill-rule="evenodd" clip-rule="evenodd" d="M21.464 153.631C21.4036 153.701 19.8189 155.08 17.9425 156.695C16.0661 158.309 14.512 159.654 14.489 159.682C14.459 159.719 14.9836 160.346 16.3283 161.881L18.2096 164.029L20.9981 163.416C23.0014 162.976 23.7857 162.785 23.7834 162.737C23.7713 162.489 21.6841 153.541 21.6345 153.524C21.6011 153.513 21.5244 153.562 21.464 153.631ZM14.1681 160.676C14.2075 160.86 16.6427 168.728 16.6618 168.734C16.6934 168.743 23.4817 163.719 23.4697 163.695C23.4583 163.672 18.2874 164.799 18.0629 164.873L17.9253 164.918L16.118 162.856C15.124 161.722 14.2748 160.75 14.231 160.696C14.1582 160.606 14.1527 160.604 14.1681 160.676Z" fill="#6374C4"/>
<path opacity="0.31" fill-rule="evenodd" clip-rule="evenodd" d="M362.862 126.994C362.809 127.079 361.341 128.83 359.599 130.884C357.858 132.937 356.417 134.646 356.397 134.68C356.371 134.725 357.041 135.309 358.747 136.73L361.133 138.718L364.025 137.586C366.102 136.773 366.912 136.434 366.902 136.383C366.847 136.119 363.084 126.859 363.028 126.85C362.99 126.844 362.916 126.909 362.862 126.994ZM356.221 135.803C356.294 135.993 360.248 144.033 360.269 144.036C360.305 144.041 366.744 137.489 366.727 137.465C366.711 137.443 361.347 139.532 361.118 139.65L360.978 139.722L358.686 137.814C357.426 136.764 356.348 135.864 356.292 135.813C356.198 135.729 356.192 135.728 356.221 135.803Z" fill="#6374C4"/>
<g opacity="0.31" filter="url(#filter3_f_45_157)">
<path fill-rule="evenodd" clip-rule="evenodd" d="M368.862 71.9941C368.809 72.0793 367.341 73.8295 365.599 75.8835C363.858 77.9374 362.417 79.646 362.397 79.6802C362.371 79.7248 363.041 80.3095 364.747 81.7304L367.133 83.7183L370.025 82.5863C372.102 81.7729 372.912 81.4342 372.902 81.3831C372.847 81.1192 369.084 71.8594 369.028 71.8503C368.99 71.8442 368.916 71.9089 368.862 71.9941ZM362.221 80.8028C362.294 80.9932 366.248 89.0332 366.269 89.036C366.305 89.0407 372.744 82.4889 372.727 82.4654C372.711 82.4432 367.347 84.5321 367.118 84.6496L366.978 84.7216L364.686 82.8135C363.426 81.7641 362.348 80.8638 362.292 80.8131C362.198 80.729 362.192 80.728 362.221 80.8028Z" fill="#6374C4"/>
</g>
<g opacity="0.31" filter="url(#filter4_f_45_157)">
<path fill-rule="evenodd" clip-rule="evenodd" d="M335.464 158.631C335.404 158.701 333.819 160.08 331.942 161.695C330.066 163.309 328.512 164.654 328.489 164.682C328.459 164.719 328.984 165.346 330.328 166.881L332.21 169.029L334.998 168.416C337.001 167.976 337.786 167.785 337.783 167.737C337.771 167.489 335.684 158.541 335.635 158.524C335.601 158.513 335.524 158.562 335.464 158.631ZM328.168 165.676C328.208 165.86 330.643 173.728 330.662 173.734C330.693 173.743 337.482 168.719 337.47 168.695C337.458 168.672 332.287 169.799 332.063 169.873L331.925 169.918L330.118 167.856C329.124 166.722 328.275 165.75 328.231 165.696C328.158 165.606 328.153 165.604 328.168 165.676Z" fill="#6374C4"/>
</g>
<defs>
<filter id="filter0_f_45_157" x="-487.421" y="-181.421" width="1425.84" height="550.843" filterUnits="userSpaceOnUse" color-interpolation-filters="sRGB">
<feFlood flood-opacity="0" result="BackgroundImageFix"/>
<feBlend mode="normal" in="SourceGraphic" in2="BackgroundImageFix" result="shape"/>
<feGaussianBlur stdDeviation="117.211" result="effect1_foregroundBlur_45_157"/>
</filter>
<filter id="filter1_f_45_157" x="22.8057" y="76.45" width="13.496" height="19.986" filterUnits="userSpaceOnUse" color-interpolation-filters="sRGB">
<feFlood flood-opacity="0" result="BackgroundImageFix"/>
<feBlend mode="normal" in="SourceGraphic" in2="BackgroundImageFix" result="shape"/>
<feGaussianBlur stdDeviation="0.7" result="effect1_foregroundBlur_45_157"/>
</filter>
<filter id="filter2_f_45_157" x="51.3057" y="181.95" width="14.496" height="20.986" filterUnits="userSpaceOnUse" color-interpolation-filters="sRGB">
<feFlood flood-opacity="0" result="BackgroundImageFix"/>
<feBlend mode="normal" in="SourceGraphic" in2="BackgroundImageFix" result="shape"/>
<feGaussianBlur stdDeviation="0.95" result="effect1_foregroundBlur_45_157"/>
</filter>
<filter id="filter3_f_45_157" x="360.306" y="69.95" width="14.496" height="20.986" filterUnits="userSpaceOnUse" color-interpolation-filters="sRGB">
<feFlood flood-opacity="0" result="BackgroundImageFix"/>
<feBlend mode="normal" in="SourceGraphic" in2="BackgroundImageFix" result="shape"/>
<feGaussianBlur stdDeviation="0.95" result="effect1_foregroundBlur_45_157"/>
</filter>
<filter id="filter4_f_45_157" x="326.361" y="156.723" width="13.2222" height="18.8108" filterUnits="userSpaceOnUse" color-interpolation-filters="sRGB">
<feFlood flood-opacity="0" result="BackgroundImageFix"/>
<feBlend mode="normal" in="SourceGraphic" in2="BackgroundImageFix" result="shape"/>
<feGaussianBlur stdDeviation="0.9" result="effect1_foregroundBlur_45_157"/>
</filter>
<linearGradient id="paint0_linear_45_157" x1="225.5" y1="53" x2="225.5" y2="135" gradientUnits="userSpaceOnUse">
<stop stop-color="white"/>
<stop offset="1" stop-color="#6374C4"/>
</linearGradient>
</defs>
</svg>
