<svg width="22" height="36" viewBox="0 0 22 36" fill="none" xmlns="http://www.w3.org/2000/svg">
<path fill-rule="evenodd" clip-rule="evenodd" d="M10.6645 0.34749C10.5847 0.538561 8.17223 4.58943 5.30351 9.34946C2.4348 14.1094 0.0637941 18.0663 0.0344592 18.1427C-0.00363671 18.2421 1.55485 19.2116 5.49921 21.5422L11.0174 24.8027L16.534 21.5405C20.4973 19.1967 22.0356 18.2387 21.9971 18.1383C21.7978 17.6187 11.0703 0 10.9532 0C10.8743 0 10.7443 0.156321 10.6645 0.34749ZM0.047552 20.4877C0.260181 20.8512 10.9718 35.9224 11.0166 35.921C11.0907 35.9188 22.0422 20.443 21.9999 20.4005C21.9599 20.3607 11.7233 26.3897 11.2963 26.7046L11.0345 26.8977L5.73448 23.7685C2.8194 22.0475 0.326725 20.5699 0.195211 20.4852C-0.022832 20.3447 -0.0359244 20.3449 0.047552 20.4877Z" fill="#6374C4"/>
</svg>
