<svg width="29" height="33" viewBox="0 0 29 33" fill="none" xmlns="http://www.w3.org/2000/svg">
<path d="M23.319 14.1017C22.4454 13.5337 21.3506 13.3164 20.0348 13.4501C21.3057 12.1212 21.5177 10.545 20.6713 8.72123C20.3697 8.05804 19.973 7.53052 19.4806 7.13793C18.9879 6.74531 18.4189 6.49005 17.772 6.37257C17.1254 6.25456 16.4571 6.22623 15.7682 6.28639C15.0791 6.34662 14.3116 6.48363 13.4664 6.69743L12.0962 2.77458L9.69916 3.61184L11.0313 7.4257C10.6162 7.57068 9.9868 7.80215 9.14317 8.12013L7.80016 4.27514L5.40277 5.11251L6.77297 9.03536C6.43403 9.16543 5.93263 9.3465 5.26848 9.57848L1.96291 10.7155L2.85464 13.2685L4.58244 12.665C5.37117 12.3895 5.95626 12.5811 6.3376 13.2396L7.89813 17.7073C8.00205 17.671 8.08685 17.6474 8.15279 17.636L7.90361 17.723L10.0893 23.9806C10.1912 24.5387 9.98279 24.9087 9.46383 25.0899L7.73615 25.6934L8.24856 28.7108L11.362 27.6233C11.5592 27.5544 11.8453 27.4574 12.2207 27.3315C12.5961 27.2063 12.8771 27.1111 13.0639 27.0458L14.4504 31.0153L16.8482 30.1778L15.478 26.255C15.9174 26.1134 16.5522 25.8974 17.3825 25.6074L18.7472 29.5145L21.1443 28.6772L19.7578 24.7077C20.5945 24.369 21.3224 24.0279 21.9411 23.6833C22.5601 23.3385 23.1283 22.9395 23.6448 22.4853C24.1614 22.0314 24.5585 21.5519 24.8363 21.0473C25.1145 20.543 25.2875 19.9641 25.3568 19.311C25.4252 18.6582 25.3676 17.9506 25.1825 17.1884C24.8143 15.6989 24.1928 14.67 23.319 14.1017ZM10.1684 10.9055C10.241 10.8801 10.4451 10.8059 10.7805 10.6828C11.1161 10.5596 11.3944 10.4567 11.6157 10.3735C11.8371 10.2904 12.1426 10.1983 12.5324 10.0971C12.922 9.9959 13.2556 9.92605 13.5331 9.88726C13.8105 9.84846 14.1261 9.83434 14.4789 9.84505C14.8321 9.85545 15.1318 9.91387 15.3782 10.0199C15.6249 10.1258 15.8593 10.2886 16.0812 10.508C16.3035 10.7272 16.4744 11.0081 16.594 11.3505C16.6955 11.6411 16.7414 11.9221 16.7315 12.1935C16.7217 12.4647 16.6511 12.7136 16.5207 12.9396C16.3902 13.1657 16.2469 13.3731 16.0913 13.5612C15.936 13.7493 15.7176 13.9333 15.4369 14.1128C15.1563 14.2924 14.9091 14.4428 14.6953 14.5639C14.4815 14.6852 14.2062 14.8135 13.8691 14.9486C13.5319 15.0838 13.2761 15.185 13.1015 15.2517C12.9268 15.3185 12.6856 15.4027 12.3776 15.5046C12.0695 15.6065 11.8897 15.6662 11.8377 15.6843L10.1685 10.9054L10.1683 10.9054L10.1684 10.9055ZM20.4172 19.2198C20.4017 19.4932 20.3473 19.7452 20.2534 19.9761C20.1591 20.2066 20.0085 20.4341 19.8014 20.6576C19.5945 20.8814 19.3858 21.0764 19.1763 21.2427C18.9666 21.4095 18.7038 21.5824 18.3886 21.7625C18.0727 21.9428 17.7924 22.0899 17.547 22.2049C17.302 22.3197 17.0058 22.4463 16.6583 22.5853C16.3109 22.7238 16.0385 22.8278 15.8414 22.8967C15.6442 22.9655 15.3941 23.0497 15.0913 23.1498C14.7885 23.2501 14.5958 23.3145 14.5127 23.3435L12.6748 18.0817C12.7577 18.0528 13.0025 17.9616 13.4088 17.8078C13.8152 17.6541 14.148 17.5324 14.4075 17.4418C14.6669 17.3512 15.0304 17.2414 15.4982 17.1132C15.9653 16.9847 16.3656 16.8971 16.6989 16.8505C17.0319 16.8042 17.405 16.7814 17.8191 16.7825C18.2327 16.7835 18.5865 16.8375 18.8801 16.9445C19.1738 17.0518 19.4489 17.2232 19.7061 17.4595C19.9635 17.6955 20.1573 18.0005 20.2879 18.3742C20.3894 18.6651 20.4325 18.9465 20.4172 19.2198Z" fill="#F6543E" fill-opacity="0.53"/>
</svg>
