<svg width="11" height="19" viewBox="0 0 11 19" fill="none" xmlns="http://www.w3.org/2000/svg">
<path opacity="0.73" fill-rule="evenodd" clip-rule="evenodd" d="M6.86248 0.994129C6.80946 1.07932 5.34112 2.82953 3.5995 4.88351C1.85788 6.93744 0.416649 8.64596 0.396688 8.68022C0.370756 8.72477 1.0409 9.30948 2.74652 10.7304L5.13272 12.7183L8.02454 11.5863C10.1021 10.7729 10.9122 10.4342 10.9016 10.3831C10.8466 10.1192 7.08353 0.859428 7.02755 0.850341C6.98979 0.844212 6.9155 0.908892 6.86248 0.994129ZM0.220905 9.80279C0.294381 9.99318 4.24765 18.0332 4.26918 18.036C4.30476 18.0407 10.7443 11.4889 10.7273 11.4654C10.7113 11.4432 5.34715 13.5321 5.11846 13.6496L4.97827 13.7216L2.68622 11.8135C1.42556 10.7641 0.348043 9.86383 0.29172 9.81308C0.198338 9.72896 0.19206 9.72804 0.220905 9.80279Z" fill="#6374C4"/>
</svg>
