<svg width="15" height="23" viewBox="0 0 15 23" fill="none" xmlns="http://www.w3.org/2000/svg">
<path opacity="0.73" fill-rule="evenodd" clip-rule="evenodd" d="M4.68152 0.891566C4.66013 1.02216 3.75911 3.89719 2.67926 7.28055C1.59939 10.6638 0.710248 13.4744 0.703303 13.5262C0.694301 13.5936 1.80653 13.966 4.60325 14.8319L8.51588 16.0432L11.4633 13.1996C13.5808 11.1567 14.3956 10.3337 14.3568 10.2769C14.1561 9.98339 4.88242 0.615551 4.80965 0.632852C4.76057 0.644522 4.7029 0.760915 4.68152 0.891566ZM1.05807 14.9821C1.244 15.1767 10.1313 22.9631 10.1589 22.9556C10.2046 22.9432 14.7255 11.7031 14.6929 11.683C14.6622 11.6641 9.18933 16.9255 8.97039 17.1844L8.83621 17.3431L5.07861 16.1812C3.0119 15.5421 1.24379 14.992 1.1495 14.9587C0.993181 14.9036 0.985071 14.9057 1.05807 14.9821Z" fill="#6374C4"/>
</svg>
