<svg width="122" height="118" viewBox="0 0 122 118" fill="none" xmlns="http://www.w3.org/2000/svg">
<mask id="path-1-inside-1_51_158" fill="white">
<path d="M122 59C122 91.5848 95.5848 118 63 118L59 118C26.4152 118 1.0017e-05 91.5848 1.29622e-05 59C1.59074e-05 26.4152 26.4152 -4.52916e-07 59 2.30234e-06L63 2.64056e-06C95.5848 5.39582e-06 122 26.4152 122 59Z"/>
</mask>
<path d="M122 59C122 91.5848 95.5848 118 63 118L59 118C26.4152 118 1.0017e-05 91.5848 1.29622e-05 59C1.59074e-05 26.4152 26.4152 -4.52916e-07 59 2.30234e-06L63 2.64056e-06C95.5848 5.39582e-06 122 26.4152 122 59Z" fill="url(#paint0_linear_51_158)"/>
<path d="M122 118L7.62939e-06 118L122 118ZM1.29622e-05 59C1.59272e-05 26.196 26.5929 -0.396973 59.397 -0.39697L62.603 -0.39697C95.4071 -0.396967 122 26.196 122 59C122 26.6344 95.5848 0.396978 63 0.396975L59 0.396975C26.4152 0.396972 1.58876e-05 26.6344 1.29622e-05 59ZM122 7.62939e-06L122 118L122 7.62939e-06ZM7.62939e-06 118L1.8295e-05 -2.68649e-06L7.62939e-06 118Z" fill="white" mask="url(#path-1-inside-1_51_158)"/>
<path d="M83.9599 33.6081C82.9458 33.0445 81.8306 32.6862 80.6779 32.5536C79.5253 32.421 78.3579 32.5168 77.2423 32.8355C76.1267 33.1542 75.0849 33.6895 74.1762 34.4109C73.2675 35.1323 72.5099 36.0256 71.9465 37.0399L55.5474 66.552L46.162 57.1666C45.3472 56.3229 44.3725 55.65 43.2948 55.1871C42.2171 54.7241 41.058 54.4804 39.8851 54.4702C38.7122 54.46 37.549 54.6835 36.4634 55.1277C35.3778 55.5718 34.3916 56.2277 33.5622 57.0571C32.7328 57.8865 32.0769 58.8728 31.6328 59.9584C31.1886 61.0439 30.9651 62.2071 30.9753 63.38C30.9855 64.5529 31.2292 65.712 31.6921 66.7897C32.1551 67.8674 32.828 68.8421 33.6717 69.657L51.3384 87.3236C53.0079 88.9975 55.2604 89.9162 57.5835 89.9162L58.8069 89.8279C60.1609 89.6385 61.4524 89.1374 62.5797 88.3641C63.7071 87.5908 64.6396 86.5664 65.3039 85.3715L87.3872 45.6214C87.951 44.6076 88.3096 43.4926 88.4425 42.3402C88.5754 41.1878 88.4799 40.0205 88.1617 38.9049C87.8434 37.7894 87.3086 36.7474 86.5876 35.8386C85.8666 34.9298 84.9737 34.1719 83.9599 33.6081Z" fill="white"/>
<defs>
<linearGradient id="paint0_linear_51_158" x1="61" y1="118" x2="61" y2="2.47145e-06" gradientUnits="userSpaceOnUse">
<stop stop-color="#48FF3B"/>
<stop offset="1" stop-color="#A8FFA1"/>
</linearGradient>
</defs>
</svg>
